<svg xmlns="http://www.w3.org/2000/svg" width="538.866" height="538.713" viewBox="36.567 50.067 538.866 538.713" fill="#fff"><path d="M393.516 319.5l168.912-197.064c16.524-16.524 16.524-43.452 0-59.976-16.523-16.524-43.452-16.524-59.976 0L306 231.984 108.936 63.072c-16.524-16.524-43.452-16.524-59.976 0s-16.524 43.452 0 59.976L218.484 319.5 49.572 516.564c-16.524 16.523-16.524 43.451 0 59.976 7.956 7.956 18.972 12.24 29.988 12.24s21.42-4.284 29.988-12.24L306 407.016l197.064 168.912c7.955 7.956 18.972 12.24 29.987 12.24 11.017 0 21.42-4.284 29.988-12.24 16.524-16.523 16.524-43.452 0-59.976L393.516 319.5z"/></svg>