<svg xmlns="http://www.w3.org/2000/svg" width="53.75" height="50.7" viewBox="0 0 53.75 50.7"><title>1</title><path d="M53.38 11.45a4.73 4.73 0 0 0-4.71-4.71h-1.6l-.6-3.05A4 4 0 0 0 41.83.44l-32.3 6a5.84 5.84 0 0 0-1 .33H4.42a4.06 4.06 0 0 0-4 4v34.84a4.73 4.73 0 0 0 4.71 4.71H48.6a4.73 4.73 0 0 0 4.71-4.71zm-.12 15.32v11.35H34.48a2.66 2.66 0 0 1-2.65-2.65v-8.7a2.66 2.66 0 0 1 2.65-2.65h18.77zm0-10.3c-.66-2.17-3.1-2.77-4.63-2.77h-.23l-1.33-7m2 7h-6.65m-29.29 0H7.87M13 10.26a2.11 2.11 0 0 1 .6-.2l26.46-4.91A2.29 2.29 0 0 1 42.78 7L44 13.71H11.93l-.2-.93A2.36 2.36 0 0 1 13 10.26m-4.82 3.45H4.42c-1.66 0-4-1.33-4-3m8.16-4A3.11 3.11 0 0 0 6.81 9.4a20.61 20.61 0 0 0 1.06 4.3" fill="none" stroke="#a6a6a6" stroke-miterlimit="10" stroke-width=".75"/><path d="M37.92 34.17a3 3 0 1 0-3-3 3 3 0 0 0 3 3z" fill="none" stroke="#a6a6a6" stroke-miterlimit="10" stroke-width=".75"/></svg>