<svg xmlns="http://www.w3.org/2000/svg" width="67.75" height="67.35" viewBox="0 0 67.75 67.35"><title>2</title><path d="M34.78 4.27v-3a.91.91 0 0 0-1.81 0v3C14.92 4.73.38 18.73.38 35.91a.9.9 0 0 0 .91.91.9.9 0 0 0 .91-.91c0-3.59 3.25-6.5 7.24-6.5s7.24 2.92 7.24 6.5a.91.91 0 1 0 1.81 0c0-3.59 3.25-6.5 7.24-6.5S33 32.33 33 35.91v25.3a3.9 3.9 0 0 1-3.62 4 3.38 3.38 0 0 1-3.62-3.35.91.91 0 1 0-1.81 0 5.18 5.18 0 0 0 5.4 5.14 5.68 5.68 0 0 0 5.43-5.76V35.91c0-3.59 3.25-6.5 7.24-6.5s7.24 2.92 7.24 6.5a.91.91 0 1 0 1.81 0c0-3.59 3.25-6.5 7.24-6.5s7.24 2.92 7.24 6.5a.9.9 0 0 0 .91.91.9.9 0 0 0 .91-.91c.01-17.18-14.54-31.18-32.59-31.64z" fill="none" stroke="#a6a6a6" stroke-miterlimit="10" stroke-width=".75"/></svg>