<svg xmlns="http://www.w3.org/2000/svg" width="59.74" height="69.59" viewBox="0 0 59.74 69.59"><title>3</title><path d="M32.78 13.59A6.63 6.63 0 1 0 26.15 7a6.64 6.64 0 0 0 6.63 6.59z" fill="none" stroke="#a6a6a6" stroke-miterlimit="10" stroke-width=".66"/><path d="M12.06 25.06a23.61 23.61 0 0 0-5.73 9.4l-3.64.67a3 3 0 0 0-2.32 2.79v6.26A2.91 2.91 0 0 0 2.69 47l3.71.69A23.58 23.58 0 0 0 12.26 57v9.3a2.92 2.92 0 0 0 2.92 2.92h4.43a4 4 0 0 0 3.61-2.63l.88-2.71a29.92 29.92 0 0 0 17.46-.3" fill="none" stroke="#a6a6a6" stroke-miterlimit="10" stroke-width=".74"/><path d="M54.45 41c0-7-4-13.32-10.73-16.93" fill="none" stroke="#a6a6a6" stroke-linecap="round" stroke-miterlimit="10" stroke-width=".74"/><path d="M16.34 28.63l-9.47-9.12c-1.44-1.39-1.33-2.41-1.13-2.9s.83-1.3 2.83-1.3h7.19A5.67 5.67 0 0 1 21.1 19a29.47 29.47 0 0 1 11.23-2.19c14.9 0 27 10.81 27 24.1a22.14 22.14 0 0 1-4.83 13.67V66.3a2.92 2.92 0 0 1-2.92 2.92h-4.4a4 4 0 0 1-3.62-2.63L40.1 55.91" fill="none" stroke="#a6a6a6" stroke-miterlimit="10" stroke-width=".74"/><path d="M41.65 21.84c0-2.07-7.76-2.18-9.31-2.18S23 19.77 23 21.84 30.78 24 32.34 24s9.31-.09 9.31-2.16zM14.61 35A2.65 2.65 0 1 0 12 32.39 2.66 2.66 0 0 0 14.61 35z" fill="none" stroke="#a6a6a6" stroke-miterlimit="10" stroke-width=".74"/></svg>