<?xml version="1.0" standalone="no"?>
<!DOCTYPE svg PUBLIC "-//W3C//DTD SVG 1.1//EN" "http://www.w3.org/Graphics/SVG/1.1/DTD/svg11.dtd" >
<svg xmlns="http://www.w3.org/2000/svg" xmlns:xlink="http://www.w3.org/1999/xlink" version="1.1">
<metadata>
Created by FontForge 20161013 at Tue Sep  6 16:12:00 2016
 By ,,,
Copyright (c) 2012 Swiss Typefaces Sa`rl. All rights reserved.
</metadata>
<defs>
<font id="EuclidCyrillic" horiz-adv-x="1269" >
  <font-face 
    font-family="Euclid Cyrillic "
    font-weight="400"
    font-stretch="normal"
    units-per-em="2048"
    panose-1="2 11 5 0 3 0 0 0 0 0"
    ascent="1651"
    descent="-397"
    x-height="1024"
    cap-height="1454"
    bbox="-139 -397 2191 1872"
    underline-thickness="153"
    underline-position="-793"
    unicode-range="U+000D-25FC"
  />
<missing-glyph horiz-adv-x="748" 
d="M68 0v1365h544v-1365h-544zM136 68h408v1229h-408v-1229z" />
    <glyph glyph-name=".notdef" horiz-adv-x="748" 
d="M68 0v1365h544v-1365h-544zM136 68h408v1229h-408v-1229z" />
    <glyph glyph-name="glyph1" horiz-adv-x="0" 
 />
    <glyph glyph-name="glyph1" horiz-adv-x="0" 
 />
    <glyph glyph-name="uni000D" unicode="&#xd;" horiz-adv-x="0" 
 />
    <glyph glyph-name="space" unicode=" " horiz-adv-x="516" 
 />
    <glyph glyph-name="exclam" unicode="!" horiz-adv-x="532" 
d="M115 135q0 41 18.5 74t50.5 53h164q31 -20 50.5 -53t19.5 -74q0 -63 -44 -107t-110 -44q-61 0 -105 44t-44 107zM178 854v600h178v-600l-32 -403h-113z" />
    <glyph glyph-name="quotedbl" unicode="&#x22;" horiz-adv-x="847" 
d="M137 952v502h160v-502h-160zM551 952v502h160v-502h-160z" />
    <glyph glyph-name="numbersign" unicode="#" horiz-adv-x="1552" 
d="M90 410v149h283l110 350h-243v150h290l123 395h162l-123 -395h371l123 395h162l-123 -395h237v-150h-284l-111 -350h248v-149h-295l-127 -410h-162l127 410h-371l-127 -410h-161l127 410h-236zM535 559h370l111 350h-371z" />
    <glyph glyph-name="dollar" unicode="$" horiz-adv-x="1062" 
d="M53 209l129 108q51 -70 138.5 -121t197.5 -51q133 0 208 62.5t75 159.5q0 49 -17.5 85.5t-49.5 67.5t-77 57.5t-102 55.5l-133 65q-164 80 -237.5 175.5t-73.5 232.5q0 74 27.5 134t73.5 106.5t108.5 77t132.5 40.5v170h151v-168q102 -14 183 -60t145 -122l-121 -113
q-55 66 -121.5 102t-161.5 36q-106 0 -175.5 -57.5t-69.5 -143.5q0 -84 54 -138.5t169 -109.5l133 -65q72 -35 134.5 -75t107.5 -88t70.5 -108.5t25.5 -136.5q0 -80 -25.5 -147.5t-74 -119.5t-117 -86t-156.5 -44v-170h-151v168q-135 14 -238.5 75.5t-161.5 145.5z" />
    <glyph glyph-name="percent" unicode="%" horiz-adv-x="1667" 
d="M152 1182q0 61 22.5 113.5t62 90t93 60t112.5 22.5q61 0 115.5 -22.5t94.5 -60t63.5 -90t23.5 -113.5t-23.5 -113.5t-63.5 -90.5t-94.5 -60.5t-115.5 -22.5q-59 0 -112.5 22.5t-93 60.5t-62 90t-22.5 114zM285 -18l909 1454h178l-909 -1454h-178zM295 1182
q0 -63 40.5 -108.5t106.5 -45.5q70 0 111 45t41 109q0 63 -41 107t-111 44q-66 0 -106.5 -44t-40.5 -107zM920 268q0 61 22.5 113.5t62 90.5t93 60.5t112.5 22.5q61 0 115.5 -22.5t94.5 -60.5t63.5 -90t23.5 -114q0 -61 -23.5 -113.5t-63.5 -90t-94.5 -60t-115.5 -22.5
q-59 0 -112.5 22.5t-93 60t-62 90t-22.5 113.5zM1063 268q0 -63 40.5 -108t106.5 -45q70 0 111 45t41 108t-41 108.5t-111 45.5q-66 0 -106.5 -45t-40.5 -109z" />
    <glyph glyph-name="ampersand" unicode="&#x26;" horiz-adv-x="1249" 
d="M51 440q0 94 35 177t96.5 145.5t145.5 98.5t184 36q41 0 86 -10l-293 567h735v-160h-467l676 -1294h-192l-137 260q-47 -129 -154 -202.5t-254 -73.5q-100 0 -184 35.5t-145.5 97t-96.5 144.5t-35 179zM225 440q0 -66 21.5 -119t60.5 -93t91.5 -61.5t113.5 -21.5
t113.5 21.5t91.5 61.5t60.5 93.5t21.5 118.5q0 63 -21.5 117.5t-60.5 94.5t-91.5 61.5t-113.5 21.5t-113.5 -21.5t-91.5 -61.5t-60.5 -94t-21.5 -118z" />
    <glyph glyph-name="quotesingle" unicode="'" horiz-adv-x="434" 
d="M137 952v502h160v-502h-160z" />
    <glyph glyph-name="parenleft" unicode="(" horiz-adv-x="497" 
d="M115 616q0 137 13 254t41 224.5t70 212t97 217.5l139 -60q-51 -109 -89 -212t-63.5 -205.5t-38 -209t-12.5 -221.5t12.5 -221t38 -208.5t63.5 -206t89 -211.5l-139 -60q-55 113 -97 217.5t-70 212t-41 224t-13 253.5z" />
    <glyph glyph-name="parenright" unicode=")" horiz-adv-x="497" 
d="M23 -231q51 109 89 212t63.5 205.5t37.5 209t12 220.5q0 115 -12 221.5t-37.5 209t-63.5 206t-89 211.5l139 60q55 -113 96 -217.5t68.5 -212t42 -224t14.5 -254.5q0 -137 -14.5 -253.5t-42 -224t-68.5 -212t-96 -217.5z" />
    <glyph glyph-name="asterisk" unicode="*" horiz-adv-x="907" 
d="M86 1149l41 131l258 -86v260h135v-260l260 86l41 -131l-258 -84l160 -217l-109 -80l-161 217l-158 -215l-113 78l160 215z" />
    <glyph glyph-name="plus" unicode="+" horiz-adv-x="1288" 
d="M197 492v143h374v364h146v-364h375v-143h-375v-373h-146v373h-374z" />
    <glyph glyph-name="comma" unicode="," horiz-adv-x="516" 
d="M133 0v252h250v-254l-117 -289h-116l88 291h-105z" />
    <glyph glyph-name="hyphen" unicode="-" horiz-adv-x="684" 
d="M94 469v182h498v-182h-498z" />
    <glyph glyph-name="period" unicode="." horiz-adv-x="532" 
d="M115 135q0 63 45 107.5t106 44.5q63 0 107.5 -44t44.5 -108q0 -63 -44.5 -107t-107.5 -44q-61 0 -106 44t-45 107z" />
    <glyph glyph-name="slash" unicode="/" horiz-adv-x="870" 
d="M0 0l705 1454h165l-704 -1454h-166z" />
    <glyph glyph-name="zero" unicode="0" horiz-adv-x="1667" 
d="M88 727q0 156 58.5 292t159 236.5t236.5 157.5t292 57t292 -57t236 -157.5t158.5 -236.5t58.5 -292q0 -158 -58.5 -293t-158.5 -235.5t-236 -157.5t-292 -57t-292 57t-236.5 157.5t-159 235.5t-58.5 293zM268 727q0 -123 42 -229.5t118 -184t179.5 -123t226.5 -45.5
t227 45.5t179 123t118 184t43 229.5t-43 229.5t-118 184.5t-179.5 123t-226.5 45q-123 0 -226.5 -45t-179.5 -123t-118 -184.5t-42 -229.5z" />
    <glyph glyph-name="one" unicode="1" horiz-adv-x="677" 
d="M88 1292v164h393v-1454h-176v1290h-217z" />
    <glyph glyph-name="two" unicode="2" horiz-adv-x="1122" 
d="M51 2l563 612q55 61 97.5 109.5t69 94.5t40 98.5t13.5 119.5q0 57 -20.5 107.5t-55.5 87.5t-85 58.5t-108 21.5q-59 0 -108 -21.5t-84 -58.5t-54.5 -87t-19.5 -108h-174q0 92 34 172t93 138.5t140 92.5t173 34t173 -34t141.5 -92.5t94.5 -138.5t34 -172q0 -66 -14.5 -124
t-45 -117.5t-79 -122t-113.5 -133.5l-336 -373h588v-164h-957z" />
    <glyph glyph-name="three" unicode="3" horiz-adv-x="1060" 
d="M61 207l136 104q37 -70 110.5 -118t169.5 -48q68 0 125 22.5t100 63.5t67 99.5t24 130.5q0 70 -22.5 129t-65.5 102t-103.5 67.5t-134.5 24.5h-129l293 506h-510v164h782l-305 -528q88 -18 157.5 -61.5t118 -105t74 -138t25.5 -160.5q0 -100 -36 -187.5t-100.5 -152
t-155.5 -101t-202 -36.5q-129 0 -241.5 60t-176.5 163z" />
    <glyph glyph-name="four" unicode="4" horiz-adv-x="1118" 
d="M6 401l885 1069v-905h190v-164h-190v-401h-174v401h-711zM346 565h371v447z" />
    <glyph glyph-name="five" unicode="5" horiz-adv-x="1107" 
d="M102 207l138 106q35 -70 110.5 -119t171.5 -49q68 0 125.5 24t98 64.5t64.5 98t24 125.5t-23 126t-64.5 101t-100 67.5t-132.5 24.5q-84 0 -139.5 -37t-87.5 -75l-121 51v739h733v-164h-557v-395q35 16 82 28.5t96 12.5q115 0 206 -38t154.5 -102.5t97.5 -152.5t34 -186
t-35 -184.5t-99.5 -151t-153.5 -101t-198 -36.5q-131 0 -246.5 60t-177.5 163z" />
    <glyph glyph-name="six" unicode="6" horiz-adv-x="1114" 
d="M74 457q0 76 24.5 143.5t59.5 126.5l434 727h203l-324 -536q14 4 36.5 8t57.5 4q96 0 182.5 -37t151 -101.5t102 -150.5t37.5 -184t-37.5 -184.5t-102 -151t-154 -101t-189.5 -36.5q-102 0 -189 36.5t-153 101t-102.5 150.5t-36.5 185zM252 457q0 -66 22.5 -122t62.5 -98
t95 -67t123 -25t123 25t95 67t62.5 98t22.5 122q0 63 -22.5 120.5t-62.5 99.5t-95 66.5t-123 24.5t-123 -24.5t-95 -66.5t-62.5 -99.5t-22.5 -120.5z" />
    <glyph glyph-name="seven" unicode="7" horiz-adv-x="1036" 
d="M59 1290v164h953l-697 -1454h-186l619 1290h-689z" />
    <glyph glyph-name="eight" unicode="8" horiz-adv-x="1122" 
d="M94 451q0 129 59.5 232t157.5 165q-51 47 -80.5 114.5t-29.5 147.5q0 78 28.5 144.5t77.5 114.5t114.5 74.5t139.5 26.5t139.5 -26.5t114.5 -74.5t78 -114.5t29 -144.5q0 -80 -30 -147.5t-81 -114.5q98 -61 157.5 -164.5t59.5 -232.5q0 -100 -37 -186.5t-100.5 -149
t-148.5 -97t-181 -34.5t-181 34.5t-148.5 97t-100.5 148.5t-37 187zM276 451q0 -63 21.5 -119t60.5 -95.5t91.5 -63t111.5 -23.5t111.5 23.5t90.5 63t60.5 95t22.5 119.5q0 63 -22.5 118.5t-60.5 95.5t-90 63.5t-112 23.5q-59 0 -111.5 -23.5t-91.5 -63.5t-60.5 -95.5
t-21.5 -118.5zM375 1110q0 -84 52 -136t126 -56h8h6q76 4 128.5 56t52.5 136q0 86 -54.5 140.5t-132.5 54.5t-132 -54.5t-54 -140.5z" />
    <glyph glyph-name="nine" unicode="9" horiz-adv-x="1112" 
d="M74 995q0 98 38 184.5t102.5 151t152.5 102t190 37.5q100 0 188.5 -37.5t154 -102t102 -150.5t36.5 -185q0 -76 -25.5 -143.5t-60.5 -126.5l-434 -727h-201l324 537q-14 -4 -36.5 -8.5t-57.5 -4.5q-96 0 -182 37t-150.5 101.5t-102.5 150.5t-38 184zM254 995
q0 -66 21.5 -122t61.5 -98t96 -66.5t124 -24.5t123 24.5t95 66.5t62.5 98.5t22.5 121.5q0 63 -22.5 121t-62.5 101t-95 67.5t-123 24.5t-124 -24.5t-96 -67.5t-61.5 -100.5t-21.5 -121.5z" />
    <glyph glyph-name="colon" unicode=":" horiz-adv-x="532" 
d="M115 135q0 63 45 107.5t106 44.5q63 0 107.5 -44t44.5 -108q0 -63 -44.5 -107t-107.5 -44q-61 0 -106 44t-45 107zM115 889q0 63 45 107t106 44q63 0 107.5 -44t44.5 -107t-44.5 -107.5t-107.5 -44.5q-61 0 -106 44t-45 108z" />
    <glyph glyph-name="semicolon" unicode=";" horiz-adv-x="516" 
d="M119 889q0 63 45 107t106 44q63 0 107.5 -44t44.5 -107t-44.5 -107.5t-107.5 -44.5q-61 0 -106 44t-45 108zM133 0v252h250v-254l-117 -289h-116l88 291h-105z" />
    <glyph glyph-name="less" unicode="&#x3c;" horiz-adv-x="948" 
d="M111 551l591 565l103 -106l-486 -459l486 -463l-103 -104z" />
    <glyph glyph-name="equal" unicode="=" horiz-adv-x="1302" 
d="M197 268v144h909v-144h-909zM197 717v143h909v-143h-909z" />
    <glyph glyph-name="greater" unicode="&#x3e;" horiz-adv-x="950" 
d="M143 88l486 463l-486 459l105 106l592 -565l-592 -567z" />
    <glyph glyph-name="question" unicode="?" horiz-adv-x="956" 
d="M33 1034q0 92 33.5 172t93 138.5t140.5 92t173 33.5t173 -33.5t141.5 -92t94 -138.5t33.5 -172t-33.5 -172t-94 -138t-141.5 -92t-173 -34h-123v162h123q57 0 107.5 20.5t85 57t55 87t20.5 109.5q0 57 -20.5 107.5t-55 87.5t-85 58.5t-107.5 21.5q-59 0 -108.5 -21.5
t-84 -58.5t-54 -87t-19.5 -108h-174zM330 135q0 41 18.5 74t50.5 53h164q31 -20 50.5 -53t19.5 -74q0 -63 -44 -107t-110 -44q-61 0 -105 44t-44 107z" />
    <glyph glyph-name="at" unicode="@" horiz-adv-x="1648" 
d="M78 690q0 174 65.5 318.5t175 247t253 158.5t298.5 56q150 0 278 -45t222 -128t147.5 -200.5t53.5 -265.5q0 -133 -32 -228t-84 -154.5t-119.5 -87t-137.5 -27.5q-63 0 -120.5 30.5t-80.5 79.5q-47 -47 -116.5 -76.5t-155.5 -29.5q-74 0 -133.5 27.5t-102.5 75.5
t-65.5 112.5t-22.5 136.5q0 92 34 174t93.5 143.5t140.5 96.5t177 35q74 0 129 -20.5t96 -57.5l12 57h148l-105 -489q-14 -68 8.5 -115t88.5 -47q41 0 78.5 23.5t66.5 70.5t46.5 115.5t17.5 159.5q0 119 -43 213t-119 159.5t-179.5 99t-222.5 33.5q-131 0 -248.5 -46
t-205.5 -131t-140.5 -205.5t-52.5 -268.5q0 -121 39 -225.5t111.5 -181t179 -120.5t242.5 -44q92 0 192 20.5t184 63.5l52 -129q-96 -43 -212 -66.5t-216 -23.5q-166 0 -298.5 55t-225.5 150.5t-142 224.5t-49 276zM559 705q0 -111 55.5 -171.5t145.5 -60.5q57 0 113.5 25.5
t95.5 89.5l69 321q-35 49 -90 72t-110 23t-105.5 -23t-89.5 -62.5t-61.5 -94t-22.5 -119.5z" />
    <glyph glyph-name="A" unicode="A" horiz-adv-x="1454" 
d="M18 0l709 1470l709 -1470h-201l-180 381h-656l-180 -381h-201zM481 553h492l-246 520z" />
    <glyph glyph-name="B" unicode="B" horiz-adv-x="1253" 
d="M176 0v1454h486q104 0 185 -30.5t134 -82t81 -121t28 -145.5q0 -111 -40 -183.5t-112 -119.5q109 -41 178.5 -128t69.5 -234q0 -98 -37 -175t-102.5 -129.5t-157.5 -79t-205 -26.5h-508zM362 172h345q147 0 218.5 69.5t71.5 176.5q0 106 -71.5 178t-218.5 72h-345v-496z
M362 827h295q117 0 181.5 64.5t64.5 163.5q0 45 -16.5 87t-48 72.5t-77.5 49t-104 18.5h-295v-455z" />
    <glyph glyph-name="C" unicode="C" horiz-adv-x="1357" 
d="M78 727q0 158 57.5 294t157.5 235.5t236.5 156.5t291.5 57q137 0 257 -43t214 -129l-108 -141q-72 59 -162 97t-201 38q-119 0 -220 -43t-175 -119.5t-116 -180t-42 -222.5q0 -121 42 -223.5t116 -179t175 -119.5t220 -43q111 0 201 38t162 97l108 -141
q-94 -86 -214 -129t-257 -43q-156 0 -292 56t-236 156.5t-157.5 236.5t-57.5 294z" />
    <glyph glyph-name="D" unicode="D" horiz-adv-x="1460" 
d="M176 0v1454h432q168 0 310.5 -55.5t246 -152.5t161.5 -230t58 -289t-58 -289t-161.5 -230t-246 -152.5t-310.5 -55.5h-432zM362 174h246q131 0 239.5 42t185.5 116t119 175t42 220t-42 220.5t-119 175t-185.5 115.5t-239.5 42h-246v-1106z" />
    <glyph glyph-name="E" unicode="E" horiz-adv-x="1116" 
d="M176 0v1454h840v-180h-654v-440h531v-181h-531v-473h654v-180h-840z" />
    <glyph glyph-name="F" unicode="F" horiz-adv-x="1032" 
d="M176 0v1454h815v-180h-629v-440h492v-181h-492v-653h-186z" />
    <glyph glyph-name="G" unicode="G" horiz-adv-x="1495" 
d="M78 727q0 158 57.5 294t157.5 235.5t236.5 156.5t291.5 57q147 0 277.5 -46t228.5 -138l-115 -139q-72 68 -173 106.5t-218 38.5q-119 0 -220 -43t-175 -119.5t-116 -180t-42 -222.5q0 -121 42 -223.5t116 -179t175 -119.5t220 -43q88 0 175 19.5t155 60.5v411h-406
l80 181h512v-687q-102 -78 -237.5 -120.5t-278.5 -42.5q-156 0 -292 56t-236 156.5t-157.5 236.5t-57.5 294z" />
    <glyph glyph-name="H" unicode="H" horiz-adv-x="1527" 
d="M176 0v1454h186v-620h803v620h187v-1454h-187v653h-803v-653h-186z" />
    <glyph glyph-name="I" unicode="I" horiz-adv-x="538" 
d="M176 0v1454h186v-1454h-186z" />
    <glyph glyph-name="J" unicode="J" horiz-adv-x="1013" 
d="M20 406h187q0 -61 18.5 -107.5t51 -76t74.5 -45t91 -15.5q104 0 172 59.5t68 184.5v1048h186v-1061q0 -102 -33.5 -179t-92 -128t-135.5 -76.5t-163 -25.5q-88 0 -164.5 27.5t-134 80.5t-91.5 132t-34 182z" />
    <glyph glyph-name="K" unicode="K" horiz-adv-x="1337" 
d="M176 0v1454h186v-729l664 729h229l-671 -739l727 -715h-248l-701 690v-690h-186z" />
    <glyph glyph-name="L" unicode="L" horiz-adv-x="1021" 
d="M176 0v1454h186v-1272h637v-182h-823z" />
    <glyph glyph-name="M" unicode="M" horiz-adv-x="1769" 
d="M176 0v1470l709 -780l708 780v-1470h-186v1012l-522 -584l-523 584v-1012h-186z" />
    <glyph glyph-name="N" unicode="N" horiz-adv-x="1574" 
d="M176 0v1470l1036 -1050v1034h187v-1470l-1037 1050v-1034h-186z" />
    <glyph glyph-name="O" unicode="O" horiz-adv-x="1642" 
d="M78 727q0 158 57.5 294t157.5 235.5t236.5 156.5t291.5 57q156 0 292 -57t236.5 -156.5t158 -235.5t57.5 -294t-57.5 -294t-158 -236.5t-236.5 -156.5t-292 -56t-292 56t-236 156.5t-157.5 236.5t-57.5 294zM268 727q0 -121 42 -223.5t116 -179t175 -119.5t220 -43
t220.5 43t175 119.5t115.5 179t42 223.5q0 119 -42 222.5t-115.5 180t-175 119.5t-220.5 43t-220 -43t-175 -119.5t-116 -180t-42 -222.5z" />
    <glyph glyph-name="P" unicode="P" horiz-adv-x="1130" 
d="M176 0v1454h412q115 0 208 -30.5t158.5 -88t101.5 -140.5t36 -185t-36 -184.5t-101.5 -139.5t-159 -89t-207.5 -32h-226v-565h-186zM362 737h220q158 0 238.5 72t80.5 201t-81 200.5t-238 71.5h-220v-545z" />
    <glyph glyph-name="Q" unicode="Q" horiz-adv-x="1652" 
d="M78 727q0 156 58.5 292t158.5 236.5t235.5 157.5t290.5 57q156 0 292 -57t236.5 -157.5t158 -236.5t57.5 -292q0 -127 -38 -238.5t-106 -203.5l189 -174l-119 -127l-188 172q-98 -82 -220 -127t-262 -45q-156 0 -291 57t-235 157.5t-158.5 235.5t-58.5 293zM268 727
q0 -119 42 -222.5t116 -179t175 -118.5t220 -43q100 0 187.5 30.5t158.5 88.5l-188 174l119 127l186 -172q43 66 66.5 145.5t23.5 169.5q0 119 -42 222.5t-115.5 179t-175 118.5t-220.5 43t-220 -43t-175 -118.5t-116 -179t-42 -222.5z" />
    <glyph glyph-name="R" unicode="R" horiz-adv-x="1271" 
d="M176 0v1454h432q106 0 192.5 -28.5t148 -83t94 -130t32.5 -168.5q0 -156 -92 -261t-252 -136l502 -647h-225l-486 635h-160v-635h-186zM362 801h234q143 0 215 63.5t72 175.5q0 115 -72 178.5t-215 63.5h-234v-481z" />
    <glyph glyph-name="S" unicode="S" horiz-adv-x="1062" 
d="M45 209l141 123q53 -68 138.5 -119t191.5 -51q127 0 201 54t74 151q0 100 -60.5 159.5t-177.5 110.5l-133 57q-166 72 -242 173.5t-76 238.5q0 82 36 149.5t95.5 115.5t136 73.5t156.5 25.5q129 0 231.5 -48t176.5 -138l-131 -131q-57 68 -122 103.5t-161 35.5
q-47 0 -88 -12t-73.5 -36.5t-51 -60.5t-18.5 -81q0 -80 49 -137.5t166 -108.5l133 -57q74 -33 136.5 -72t108.5 -89t71.5 -112.5t25.5 -138.5q0 -90 -32 -163.5t-92 -127t-145.5 -83t-191.5 -29.5q-160 0 -283.5 66.5t-189.5 158.5z" />
    <glyph glyph-name="T" unicode="T" horiz-adv-x="1093" 
d="M41 1274v180h1012v-180h-414v-1274h-186v1274h-412z" />
    <glyph glyph-name="U" unicode="U" horiz-adv-x="1476" 
d="M158 553v901h186v-909q0 -94 28.5 -166t81 -120t124 -72.5t159.5 -24.5t160 24.5t124 72.5t80.5 120t28.5 166v909h187v-901q0 -133 -43 -238.5t-120 -179.5t-183.5 -112.5t-233.5 -38.5t-233.5 38.5t-183 112.5t-119.5 179.5t-43 238.5z" />
    <glyph glyph-name="V" unicode="V" horiz-adv-x="1370" 
d="M14 1454h205l467 -1042l465 1042h205l-670 -1470z" />
    <glyph glyph-name="W" unicode="W" horiz-adv-x="1849" 
d="M31 1454h192l322 -971l379 987l381 -987l321 971h193l-500 -1470l-395 1026l-394 -1026z" />
    <glyph glyph-name="X" unicode="X" horiz-adv-x="1370" 
d="M43 0l524 741l-497 713h215l399 -571l399 571h215l-493 -713l522 -741h-211l-430 604l-426 -604h-217z" />
    <glyph glyph-name="Y" unicode="Y" horiz-adv-x="1294" 
d="M20 1454h218l409 -655l410 655h217l-533 -838v-616h-188v616z" />
    <glyph glyph-name="Z" unicode="Z" horiz-adv-x="1243" 
d="M47 0l809 1274h-721v180h1041l-809 -1274h813v-180h-1133z" />
    <glyph glyph-name="bracketleft" unicode="[" horiz-adv-x="581" 
d="M158 -289v1807h383v-146h-222v-1515h222v-146h-383z" />
    <glyph glyph-name="backslash" unicode="\" horiz-adv-x="870" 
d="M0 1454h166l704 -1454h-165z" />
    <glyph glyph-name="bracketright" unicode="]" horiz-adv-x="581" 
d="M41 -143h221v1515h-221v146h383v-1807h-383v146z" />
    <glyph glyph-name="asciicircum" unicode="^" horiz-adv-x="1243" 
d="M66 649l555 809l557 -809h-177l-380 549l-381 -549h-174z" />
    <glyph glyph-name="underscore" unicode="_" horiz-adv-x="868" 
d="M0 0h868v-150h-868v150z" />
    <glyph glyph-name="grave" unicode="`" horiz-adv-x="557" 
d="M86 1454h223l178 -338h-145z" />
    <glyph glyph-name="a" unicode="a" 
d="M88 512q0 111 39 208t108.5 167.5t166 111.5t208.5 41q94 0 177 -29.5t149 -88.5v102h176v-1024h-176v102q-66 -59 -148.5 -88.5t-177.5 -29.5q-113 0 -209 41t-165.5 111.5t-108.5 167.5t-39 208zM270 512q0 -76 26 -142.5t72 -115.5t108 -76.5t138 -27.5q111 0 194 47
t128 118v394q-45 72 -128 118.5t-194 46.5q-76 0 -138 -27.5t-108 -76.5t-72 -115.5t-26 -142.5z" />
    <glyph glyph-name="b" unicode="b" 
d="M158 0v1454h176v-532q63 59 146 88.5t179 29.5q113 0 209.5 -41t166 -111.5t108.5 -167.5t39 -208t-39 -208t-108.5 -167.5t-166 -111.5t-209.5 -41q-96 0 -179 29.5t-146 88.5v-102h-176zM334 315q43 -72 127 -118.5t194 -46.5q76 0 138.5 27.5t108.5 76.5t71.5 115.5
t25.5 142.5t-25.5 142.5t-71.5 115.5t-108.5 76.5t-138.5 27.5q-111 0 -194.5 -47t-126.5 -118v-394z" />
    <glyph glyph-name="c" unicode="c" horiz-adv-x="1081" 
d="M88 512q0 111 40 207t109.5 167.5t166 112.5t210.5 41q129 0 226.5 -46t165.5 -115l-113 -123q-49 49 -117.5 83.5t-161.5 34.5q-76 0 -138 -27.5t-108 -76.5t-72 -115.5t-26 -142.5t26 -142.5t72 -115.5t108.5 -76.5t137.5 -27.5q92 0 161 34.5t118 83.5l113 -123
q-68 -70 -165.5 -115.5t-226.5 -45.5q-115 0 -211 41t-165.5 112.5t-109.5 167.5t-40 207z" />
    <glyph glyph-name="d" unicode="d" 
d="M88 512q0 111 39 208t108.5 167.5t166 111.5t208.5 41q94 0 177 -29.5t149 -88.5v532h176v-1454h-176v102q-66 -59 -148.5 -88.5t-177.5 -29.5q-113 0 -209 41t-165.5 111.5t-108.5 167.5t-39 208zM270 512q0 -76 26 -142.5t72 -115.5t108 -76.5t138 -27.5q111 0 194 47
t128 118v394q-45 72 -128 118.5t-194 46.5q-76 0 -138 -27.5t-108 -76.5t-72 -115.5t-26 -142.5z" />
    <glyph glyph-name="e" unicode="e" horiz-adv-x="1181" 
d="M88 512q0 111 40 208t109.5 167.5t163 111.5t201.5 41q106 0 197.5 -37.5t158 -110.5t104.5 -179.5t40 -243.5h-832q6 -68 35 -126t74 -101t105.5 -67.5t129.5 -24.5q98 0 174 36.5t125 85.5l113 -122q-66 -70 -171.5 -118t-240.5 -48q-115 0 -211 41t-165.5 112.5
t-109.5 167.5t-40 207zM279 623h624q-18 127 -106 193q-85 64 -198 63h-7q-113 0 -199 -70t-114 -186z" />
    <glyph glyph-name="f" unicode="f" horiz-adv-x="731" 
d="M45 864v160h172q-35 35 -55.5 81t-20.5 99t21.5 99.5t60.5 80t94.5 52t122.5 18.5h242v-160h-213q-66 0 -111 -31.5t-45 -97.5q0 -68 45 -102.5t97 -38.5h227v-160h-285v-864h-176v864h-176z" />
    <glyph glyph-name="g" unicode="g" horiz-adv-x="1249" 
d="M88 535q0 106 37 199t102.5 161t158.5 106.5t208 38.5q98 0 177 -30.5t142 -89.5v104h177v-815q20 -53 29 -104.5t9 -96.5q0 -111 -46 -187.5t-121.5 -125.5t-171 -70.5t-193.5 -21.5q-111 0 -227.5 30.5t-208.5 90.5l92 149q66 -47 157 -76.5t193 -29.5q68 0 129.5 13
t109.5 44t76.5 80t28.5 121q0 27 -6 63.5t-20 65.5q-127 -123 -326 -123q-115 0 -208 39t-158.5 106.5t-102.5 159.5t-37 199zM270 535q0 -72 23.5 -134.5t66.5 -108.5t103.5 -71.5t134.5 -25.5q111 0 192.5 48t122.5 119v347q-41 72 -122.5 118.5t-192.5 46.5
q-74 0 -134.5 -25.5t-103.5 -71.5t-66.5 -107.5t-23.5 -134.5z" />
    <glyph glyph-name="h" unicode="h" horiz-adv-x="1183" 
d="M158 0v1454h176v-547q59 74 143 103.5t174 29.5q86 0 159 -29.5t125 -83t82 -131t30 -171.5v-625h-177v614q0 113 -68.5 186.5t-189.5 73.5q-109 0 -179.5 -56t-98.5 -156v-662h-176z" />
    <glyph glyph-name="i" unicode="i" horiz-adv-x="491" 
d="M119 1341q0 53 37 91t90 38t90 -37.5t37 -91.5q0 -59 -39 -94h-176q-39 35 -39 94zM158 0v1024h176v-1024h-176z" />
    <glyph glyph-name="j" unicode="j" horiz-adv-x="491" 
d="M-55 -217h61q86 0 119 43t33 121v1077h176v-1104q0 -147 -81 -222t-228 -75h-80v160zM119 1341q0 53 37 91t90 38t90 -37.5t37 -91.5q0 -59 -39 -94h-176q-39 35 -39 94z" />
    <glyph glyph-name="k" unicode="k" horiz-adv-x="1056" 
d="M158 0v1454h176v-893l452 463h222l-478 -483l525 -541h-228l-493 510v-510h-176z" />
    <glyph glyph-name="l" unicode="l" horiz-adv-x="491" 
d="M158 0v1454h176v-1454h-176z" />
    <glyph glyph-name="m" unicode="m" horiz-adv-x="1792" 
d="M158 0v1024h176v-113q57 72 134 100.5t155 28.5q102 0 182 -44t127 -124q37 49 80 82t88 52.5t90 26.5t84 7q88 0 158.5 -29.5t120 -83t76 -131t26.5 -171.5v-625h-176v614q0 113 -61.5 186.5t-172.5 73.5q-96 0 -159.5 -55t-92.5 -153q2 -10 2 -20.5v-20.5v-625h-176
v614q0 113 -62.5 186.5t-172.5 73.5q-90 0 -154.5 -50t-95.5 -142v-682h-176z" />
    <glyph glyph-name="n" unicode="n" horiz-adv-x="1183" 
d="M158 0v1024h176v-117q59 74 143 103.5t174 29.5q86 0 159 -29.5t125 -83t82 -131t30 -171.5v-625h-177v614q0 113 -68.5 186.5t-189.5 73.5q-109 0 -179.5 -56t-98.5 -156v-662h-176z" />
    <glyph glyph-name="o" unicode="o" horiz-adv-x="1239" 
d="M88 512q0 111 40 207t110.5 167.5t168 112.5t214.5 41q115 0 212 -41t167.5 -112.5t110.5 -167.5t40 -207t-40 -207t-110.5 -167.5t-167.5 -112.5t-212 -41q-117 0 -214.5 41t-168 112.5t-110.5 167.5t-40 207zM270 512q0 -76 26 -142.5t72 -115.5t110.5 -76.5
t142.5 -27.5t142 27.5t110.5 76.5t71 115.5t24.5 142.5t-24.5 142.5t-71 115.5t-111 76.5t-141.5 27.5q-78 0 -142.5 -27.5t-110.5 -76.5t-72 -115.5t-26 -142.5z" />
    <glyph glyph-name="p" unicode="p" 
d="M158 -377v1401h176v-102q63 59 146 88.5t179 29.5q113 0 209.5 -41t166 -111.5t108.5 -167.5t39 -208t-39 -208t-108.5 -167.5t-166 -111.5t-209.5 -41q-96 0 -179 29.5t-146 88.5v-479h-176zM334 315q43 -72 127 -118.5t194 -46.5q76 0 138.5 27.5t108.5 76.5
t71.5 115.5t25.5 142.5t-25.5 142.5t-71.5 115.5t-108.5 76.5t-138.5 27.5q-111 0 -194.5 -47t-126.5 -118v-394z" />
    <glyph glyph-name="q" unicode="q" 
d="M88 512q0 111 39 208t108.5 167.5t166 111.5t208.5 41q94 0 177 -29.5t149 -88.5v102h176v-1401h-176v479q-66 -59 -148.5 -88.5t-177.5 -29.5q-113 0 -209 41t-165.5 111.5t-108.5 167.5t-39 208zM270 512q0 -76 26 -142.5t72 -115.5t108 -76.5t138 -27.5q111 0 194 47
t128 118v394q-45 72 -128 118.5t-194 46.5q-76 0 -138 -27.5t-108 -76.5t-72 -115.5t-26 -142.5z" />
    <glyph glyph-name="r" unicode="r" horiz-adv-x="735" 
d="M158 0v1024h176v-121q53 66 124.5 98.5t157.5 32.5q37 0 72 -6v-182q-43 12 -98 12q-84 0 -152.5 -41t-103.5 -121v-696h-176z" />
    <glyph glyph-name="s" unicode="s" horiz-adv-x="856" 
d="M55 188l140 95q41 -68 93 -105t134 -37q76 0 129 35t53 94t-41 95t-133 69l-80 31q-135 51 -189.5 131t-54.5 172q0 57 24 107.5t67 87t101 57t128 20.5q98 0 179 -45t128 -139l-137 -80q-51 106 -170 107q-59 0 -102 -30t-43 -83q0 -47 29.5 -85t119.5 -71l84 -30
q131 -47 198.5 -120t67.5 -188q0 -61 -25.5 -114t-72.5 -93t-113.5 -62.5t-150.5 -22.5q-115 0 -208 50t-155 154z" />
    <glyph glyph-name="t" unicode="t" horiz-adv-x="759" 
d="M0 1024h203v219l176 88v-307h309l-39 -160h-270v-540q0 -78 32.5 -121t118.5 -43h138v-160h-156q-147 0 -228 75t-81 222v567h-164z" />
    <glyph glyph-name="u" unicode="u" horiz-adv-x="1163" 
d="M119 399v625h176v-614q0 -113 68.5 -186.5t187.5 -73.5q106 0 177 53t101 151v670h177v-1024h-177v115q-59 -74 -142 -102.5t-173 -28.5q-88 0 -160.5 29.5t-125 83t-81 130t-28.5 172.5z" />
    <glyph glyph-name="v" unicode="v" horiz-adv-x="1095" 
d="M6 1024h199l342 -690l344 690h199l-543 -1040z" />
    <glyph glyph-name="w" unicode="w" horiz-adv-x="1474" 
d="M43 1024h182l230 -745l282 761l283 -761l229 745h183l-324 -1024h-141l-230 621l-227 -621h-143z" />
    <glyph glyph-name="x" unicode="x" horiz-adv-x="1105" 
d="M47 0l399 520l-378 504h202l285 -377l281 377h202l-379 -504l400 -520h-205l-301 397l-301 -397h-205z" />
    <glyph glyph-name="y" unicode="y" horiz-adv-x="1044" 
d="M12 1024h191l319 -745l322 745h190l-628 -1401h-187l211 463z" />
    <glyph glyph-name="z" unicode="z" horiz-adv-x="1032" 
d="M55 0l602 864h-536v160h842l-601 -864h580v-160h-887z" />
    <glyph glyph-name="braceleft" unicode="{" horiz-adv-x="602" 
d="M45 541v145h33q76 0 97.5 37t21.5 108v392q0 143 56 219t202 76h102v-146h-80q-76 0 -98.5 -36t-22.5 -113v-383q0 -94 -22.5 -145.5t-85.5 -80.5q63 -31 85.5 -82t22.5 -145v-381q0 -78 22.5 -113.5t98.5 -35.5h80v-146h-98q-145 0 -203.5 75t-58.5 220v389
q0 72 -21.5 109t-97.5 37h-33z" />
    <glyph glyph-name="bar" unicode="|" horiz-adv-x="468" 
d="M154 -377v1831h161v-1831h-161z" />
    <glyph glyph-name="braceright" unicode="}" horiz-adv-x="602" 
d="M43 -143h80q76 0 98.5 35.5t22.5 113.5v381q0 94 22.5 145.5t85.5 81.5q-63 29 -85.5 80t-22.5 146v383q0 78 -22.5 113.5t-98.5 35.5h-80v146h102q145 0 201.5 -76t56.5 -219v-392q0 -72 21.5 -108.5t97.5 -36.5h33v-145h-33q-76 0 -97.5 -37t-21.5 -109v-389
q0 -145 -58 -220t-204 -75h-98v146z" />
    <glyph glyph-name="asciitilde" unicode="~" horiz-adv-x="1249" 
d="M197 422v176l221 150l405 -154l230 151v-167l-222 -154l-407 154z" />
    <glyph glyph-name="uni00A0" unicode="&#xa0;" horiz-adv-x="516" 
 />
    <glyph glyph-name="cent" unicode="&#xa2;" horiz-adv-x="1093" 
d="M92 512q0 102 34 192.5t95.5 160t145.5 114.5t184 57v168h137v-168q102 -12 182 -55t140 -102l-113 -123q-49 49 -117.5 83.5t-161.5 34.5q-76 0 -138 -27.5t-108 -76.5t-72 -115.5t-26 -142.5t26 -142.5t72 -115.5t108.5 -76.5t137.5 -27.5q92 0 161 34.5t118 83.5
l113 -123q-59 -59 -139 -102t-183 -55v-168h-137v168q-100 12 -184 57t-145.5 114.5t-95.5 160t-34 192.5z" />
    <glyph glyph-name="sterling" unicode="&#xa3;" horiz-adv-x="1251" 
d="M147 0v164h185v461h-185v149h187q-51 53 -80 124t-29 149q0 86 32 163.5t90.5 135t139 91t177.5 33.5q94 0 174 -33.5t138 -93t91 -138.5t33 -167h-178q0 55 -18.5 104.5t-52.5 86.5t-82 58.5t-105 21.5q-59 0 -107.5 -19.5t-82.5 -55.5t-53.5 -84t-19.5 -103
t19.5 -105.5t53.5 -87.5t82 -58.5t108 -21.5h167v-149h-321v-461h645v-164h-1008z" />
    <glyph glyph-name="yen" unicode="&#xa5;" horiz-adv-x="1306" 
d="M33 1454h205l415 -659l416 659h205l-475 -747h266v-150h-324v-151h324v-150h-324v-256h-174v256h-323v150h323v151h-323v150h266z" />
    <glyph glyph-name="dieresis" unicode="&#xa8;" horiz-adv-x="831" 
d="M61 1292q0 51 37 86t86 35q53 0 89 -35t36 -86q0 -53 -36 -88t-89 -35q-49 0 -86 35t-37 88zM522 1292q0 51 36 86t87 35q53 0 88 -35t35 -86q0 -53 -35 -88t-88 -35q-51 0 -87 35t-36 88z" />
    <glyph glyph-name="copyright" unicode="&#xa9;" horiz-adv-x="1642" 
d="M78 725q0 154 58.5 289t159.5 236.5t236.5 160.5t288.5 59q154 0 289 -59t236.5 -160.5t160 -236.5t58.5 -289t-58.5 -289t-160 -236.5t-236.5 -159.5t-289 -58t-289 58t-236 159.5t-159.5 236.5t-58.5 289zM219 725q0 -123 47 -232.5t129 -191.5t191.5 -129t232.5 -47
q125 0 234.5 47t191.5 129t129 191.5t47 232.5q0 125 -47 234.5t-129 191.5t-191.5 129t-234.5 47q-123 0 -232.5 -47t-191.5 -129t-129 -191.5t-47 -234.5zM449 729q0 86 29.5 159t82.5 126t126 83.5t157 30.5q41 0 86 -9t88 -29.5t81 -51t66 -73.5l-104 -95
q-39 53 -95.5 85t-115.5 32q-115 0 -182.5 -72.5t-67.5 -185.5t67.5 -185.5t182.5 -72.5q59 0 115.5 32t95.5 85l104 -94q-29 -43 -66.5 -74t-80.5 -51.5t-88 -29.5t-86 -9q-84 0 -157 30.5t-126 84t-82.5 126t-29.5 158.5z" />
    <glyph glyph-name="guillemotleft" unicode="&#xab;" horiz-adv-x="1005" 
d="M59 512l312 453l127 -86l-252 -367l252 -367l-127 -86zM473 512l311 453l127 -86l-252 -367l252 -367l-127 -86z" />
    <glyph glyph-name="uni00AD" unicode="&#xad;" horiz-adv-x="684" 
d="M94 469v182h498v-182h-498z" />
    <glyph glyph-name="registered" unicode="&#xae;" horiz-adv-x="1642" 
d="M78 725q0 154 58.5 289t159.5 236.5t236.5 160.5t288.5 59q154 0 289 -59t236.5 -160.5t160 -236.5t58.5 -289t-58.5 -289t-160 -236.5t-236.5 -159.5t-289 -58t-289 58t-236 159.5t-159.5 236.5t-58.5 289zM219 725q0 -123 47 -232.5t129 -191.5t191.5 -129t232.5 -47
q125 0 234.5 47t191.5 129t129 191.5t47 232.5q0 125 -47 234.5t-129 191.5t-191.5 129t-234.5 47q-123 0 -232.5 -47t-191.5 -129t-129 -191.5t-47 -234.5zM563 336v786h289q102 0 170 -60.5t68 -160.5q-2 -86 -50.5 -143.5t-124.5 -77.5l254 -344h-163l-244 334h-60v-334
h-139zM705 799h122q113 0 113 94t-113 94h-122v-188z" />
    <glyph glyph-name="acute" unicode="&#xb4;" horiz-adv-x="557" 
d="M68 1116l178 338h223l-254 -338h-147z" />
    <glyph glyph-name="cedilla" unicode="&#xb8;" horiz-adv-x="403" 
d="M-12 -276l157 276h121l-78 -276h-200z" />
    <glyph glyph-name="guillemotright" unicode="&#xbb;" horiz-adv-x="1005" 
d="M94 145l252 367l-252 367l127 86l311 -453l-311 -453zM508 145l252 367l-252 367l127 86l311 -453l-311 -453z" />
    <glyph glyph-name="circumflex" unicode="&#x2c6;" horiz-adv-x="811" 
d="M53 1251l348 219l349 -219l-72 -118l-277 176l-278 -176z" />
    <glyph glyph-name="ring" unicode="&#x2da;" horiz-adv-x="540" 
d="M68 1352q0 86 59 140t143 54t143.5 -54t59.5 -140q0 -41 -15.5 -76t-43 -61.5t-64.5 -41t-80 -14.5t-79.5 14.5t-64.5 41t-43 61.5t-15 76zM172 1352q0 -43 28.5 -70t69.5 -27t70 27t29 70q0 45 -29 71.5t-70 26.5t-69.5 -26.5t-28.5 -71.5z" />
    <glyph glyph-name="tilde" unicode="&#x2dc;" horiz-adv-x="888" 
d="M90 1159l6 39q18 92 79 142.5t132 50.5q43 0 79 -14.5t67.5 -31t59.5 -31t52 -14.5q43 0 65.5 23t33.5 68h135l-6 -37q-16 -86 -75 -139.5t-136 -53.5q-43 0 -80 14.5t-69 31t-59.5 30.5t-54.5 14q-41 0 -62 -22.5t-32 -69.5h-135z" />
    <glyph glyph-name="afii10017" unicode="&#x410;" horiz-adv-x="1454" 
d="M18 0l709 1470l709 -1470h-201l-180 381h-656l-180 -381h-201zM481 553h492l-246 520z" />
    <glyph glyph-name="afii10018" unicode="&#x411;" horiz-adv-x="1239" 
d="M184 0v1454h877v-180h-690v-428h338q217 0 350 -118t133 -310q0 -197 -145.5 -307.5t-380.5 -110.5h-482zM371 174h327q147 0 228.5 67.5t81.5 180.5q0 115 -81 184.5t-229 69.5h-327v-502z" />
    <glyph glyph-name="afii10019" unicode="&#x412;" horiz-adv-x="1275" 
d="M184 0v1454h486q203 0 315.5 -108.5t112.5 -270.5q0 -201 -152 -303q248 -96 248 -362q0 -195 -136 -302.5t-366 -107.5h-508zM371 172h344q141 0 216 67.5t75 178t-75 180.5t-216 70h-344v-496zM371 827h295q113 0 179 64.5t66 163.5q0 96 -66.5 161.5t-178.5 65.5h-295
v-455z" />
    <glyph glyph-name="afii10020" unicode="&#x413;" horiz-adv-x="985" 
d="M184 0v1454h768v-180h-581v-1274h-187z" />
    <glyph glyph-name="afii10021" unicode="&#x414;" horiz-adv-x="1525" 
d="M72 180h121l598 1290l598 -1290h122v-483h-182v303h-1075v-303h-182v483zM383 180h815l-407 893z" />
    <glyph glyph-name="afii10022" unicode="&#x415;" horiz-adv-x="1142" 
d="M184 0v1454h840v-180h-653v-440h530v-181h-530v-473h653v-180h-840z" />
    <glyph glyph-name="afii10024" unicode="&#x416;" horiz-adv-x="2136" 
d="M27 0l727 715l-672 739h229l664 -729v729h186v-729l664 729h229l-672 -739l727 -715h-247l-701 690v-690h-186v690l-701 -690h-247z" />
    <glyph glyph-name="afii10025" unicode="&#x417;" horiz-adv-x="1077" 
d="M41 205l141 123q135 -168 334 -168q135 0 216 74.5t81 187.5t-82 181.5t-229 68.5h-121v162h127q115 0 185.5 63.5t70.5 159.5q0 100 -73 169.5t-195 67.5q-154 0 -275 -137l-127 127q170 186 426 186q201 0 314.5 -114.5t113.5 -280.5q0 -211 -192 -317
q244 -102 243 -348q0 -199 -143 -312.5t-346 -113.5q-291 0 -469 221z" />
    <glyph glyph-name="afii10026" unicode="&#x418;" horiz-adv-x="1591" 
d="M184 -16v1470h187v-1034l1036 1050v-1470h-186v1034z" />
    <glyph glyph-name="afii10027" unicode="&#x419;" horiz-adv-x="1591" 
d="M184 -16v1470h187v-1034l1036 1050v-1470h-186v1034zM184 -16v1470h187v-1034l1036 1050v-1470h-186v1034zM467 1872h147q2 -96 49.5 -147.5t129 -51.5t129 51.5t49.5 147.5h147q-2 -154 -90 -237t-235.5 -83t-235.5 83t-90 237z" />
    <glyph glyph-name="afii10028" unicode="&#x41a;" horiz-adv-x="1345" 
d="M184 0v1454h187v-729l663 729h230l-672 -739l727 -715h-248l-700 690v-690h-187z" />
    <glyph glyph-name="afii10029" unicode="&#x41b;" horiz-adv-x="1454" 
d="M18 0l709 1470l709 -1470h-201l-508 1073l-508 -1073h-201z" />
    <glyph glyph-name="afii10030" unicode="&#x41c;" horiz-adv-x="1785" 
d="M184 0v1470l709 -780l709 780v-1470h-187v1012l-522 -584l-522 584v-1012h-187z" />
    <glyph glyph-name="afii10031" unicode="&#x41d;" horiz-adv-x="1544" 
d="M184 0v1454h187v-620h803v620h186v-1454h-186v653h-803v-653h-187z" />
    <glyph glyph-name="afii10032" unicode="&#x41e;" horiz-adv-x="1671" 
d="M92 727q0 315 215 529t528.5 214t528.5 -214t215 -529t-215 -530q-215 -213 -528.5 -213t-528.5 214t-215 529zM282.5 727.5q-0.5 -239.5 157.5 -403.5q158 -162 395.5 -162t395.5 162.5t158 402.5t-158 402.5t-395.5 162.5t-395 -162.5t-158 -402z" />
    <glyph glyph-name="afii10033" unicode="&#x41f;" horiz-adv-x="1478" 
d="M184 0v1454h1110v-1454h-186v1274h-737v-1274h-187z" />
    <glyph glyph-name="afii10034" unicode="&#x420;" horiz-adv-x="1173" 
d="M184 0v1454h412q229 0 366.5 -120t137.5 -324q0 -203 -137.5 -324t-366.5 -121h-225v-565h-187zM371 737h219q156 0 237.5 71t81.5 202q0 129 -82 200.5t-237 71.5h-219v-545z" />
    <glyph glyph-name="afii10035" unicode="&#x421;" horiz-adv-x="1372" 
d="M92 727q0 315 215 529t529 214q281 0 471 -172l-109 -141q-160 135 -362 135q-238 0 -395.5 -162.5t-157.5 -402.5t157.5 -402.5t395.5 -162.5q203 0 362 135l109 -141q-190 -172 -471 -172q-313 0 -528.5 214t-215.5 529z" />
    <glyph glyph-name="afii10036" unicode="&#x422;" horiz-adv-x="1093" 
d="M41 1274v180h1012v-180h-414v-1274h-186v1274h-412z" />
    <glyph glyph-name="afii10037" unicode="&#x423;" horiz-adv-x="1210" 
d="M14 1454h205l422 -848l389 848h201l-678 -1454h-191l185 401z" />
    <glyph glyph-name="afii10038" unicode="&#x424;" horiz-adv-x="1937" 
d="M82 768q0 258 176 415.5t475 157.5h144v199h186v-199h143q299 0 475.5 -157.5t176.5 -415.5q0 -260 -176.5 -420t-475.5 -160h-143v-188h-186v188h-144q-299 0 -475 160t-176 420zM272 768q0 -188 116 -293.5t337 -105.5h152v792h-152q-221 0 -337 -104.5t-116 -288.5z
M1063 369h151q221 0 337 105.5t116 293.5q0 184 -115.5 288.5t-337.5 104.5h-151v-792z" />
    <glyph glyph-name="afii10039" unicode="&#x425;" horiz-adv-x="1370" 
d="M43 0l524 741l-497 713h215l399 -571l399 571h215l-493 -713l522 -741h-211l-430 604l-426 -604h-217z" />
    <glyph glyph-name="afii10040" unicode="&#x426;" horiz-adv-x="1476" 
d="M184 0v1454h187v-1274h721v1276h186v-1276h145v-483h-182v303h-1057z" />
    <glyph glyph-name="afii10041" unicode="&#x427;" horiz-adv-x="1259" 
d="M113 973v481h186v-461q2 -117 62.5 -189.5t181.5 -72.5h346v723h186v-1454h-186v553h-361q-190 0 -302.5 117.5t-112.5 302.5z" />
    <glyph glyph-name="afii10042" unicode="&#x428;" horiz-adv-x="1988" 
d="M184 0v1454h187v-1274h530v1274h186v-1274h531v1274h186v-1454h-1620z" />
    <glyph glyph-name="afii10043" unicode="&#x429;" horiz-adv-x="2002" 
d="M184 2v1454h187v-1274h530v1274h186v-1274h531v1274h186v-1276h146v-483h-183v303l-2 2h-1581z" />
    <glyph glyph-name="afii10044" unicode="&#x42a;" horiz-adv-x="1226" 
d="M-139 1274v180h340h186v-577h246q236 0 373 -119q139 -121 139 -320q0 -102 -36 -183t-103.5 -137.5t-161.5 -87t-211 -30.5h-432v1276v-2h-340zM387 172h244q160 0 243.5 68.5t83.5 197.5t-83.5 198t-243.5 69h-244v-533z" />
    <glyph glyph-name="afii10045" unicode="&#x42b;" horiz-adv-x="1720" 
d="M184 0v1454h187v-577h245q233 0 372.5 -119t139.5 -320q0 -203 -139 -320.5t-373 -117.5h-432zM371 172h243q158 0 243 68.5t85 197.5t-85 198t-243 69h-243v-533zM1350 0v1454h186v-1454h-186z" />
    <glyph glyph-name="afii10046" unicode="&#x42c;" horiz-adv-x="1210" 
d="M184 0v1454h187v-577h245q233 0 372.5 -119t139.5 -320q0 -203 -139 -320.5t-373 -117.5h-432zM371 172h243q158 0 243 68.5t85 197.5t-85 198t-243 69h-243v-533z" />
    <glyph glyph-name="afii10047" unicode="&#x42d;" horiz-adv-x="1372" 
d="M66 158l108 141q160 -135 363 -135q211 0 363.5 140t182.5 349h-690v181h690q-31 207 -181 333.5t-365 126.5q-203 0 -363 -135l-108 141q190 172 471 173q313 0 528 -214.5t215 -529.5t-215 -529t-528 -214q-281 0 -471 172z" />
    <glyph glyph-name="afii10048" unicode="&#x42e;" horiz-adv-x="2285" 
d="M184 0v1454h187v-635h340q27 254 209 436q215 215 528 215t528 -215q215 -213 215 -528t-215 -530q-217 -213 -528 -213t-528 213q-182 184 -209 440h-340v-637h-187zM895 727q0 -240 158 -403q156 -162 395 -162t395 162q158 164 158 403q0 238 -158 401
q-158 164 -395 164q-238 0 -395 -164q-158 -164 -158 -401z" />
    <glyph glyph-name="afii10049" unicode="&#x42f;" horiz-adv-x="1179" 
d="M82 0l448 569q-215 23 -321.5 142.5t-106.5 298.5q0 203 140.5 323.5t373.5 120.5h379v-1454h-186v565h-66l-442 -565h-219zM291 1010q0 -129 85 -201t242 -72h191v545h-191q-158 0 -242.5 -72.5t-84.5 -199.5z" />
    <glyph glyph-name="afii10065" unicode="&#x430;" horiz-adv-x="1292" 
d="M94 512q0 223 148.5 375.5t373.5 152.5q195 0 326 -118v102h176v-1024h-176v102q-131 -119 -326 -118q-225 0 -373.5 152.5t-148.5 375.5zM276 512q0 -154 97.5 -258t247.5 -104q106 0 190 45t131 120v394q-47 76 -131 120.5t-190 44.5q-150 0 -247.5 -104t-97.5 -258z
" />
    <glyph glyph-name="afii10066" unicode="&#x431;" horiz-adv-x="1253" 
d="M113 543v329q0 256 147.5 419t382.5 163h434l-35 -160h-393q-160 0 -260 -106.5t-102 -272.5v-34q150 154 366 153q223 0 364.5 -152.5t141.5 -369.5q0 -221 -148.5 -374.5t-373.5 -153.5q-231 0 -377.5 158.5t-146.5 400.5zM287 524q0 -164 97 -271.5t251 -107.5
q152 0 249 104.5t97 262.5q0 150 -96.5 256t-247.5 106q-121 0 -210 -54t-140 -142v-154z" />
    <glyph glyph-name="afii10067" unicode="&#x432;" horiz-adv-x="1069" 
d="M174 0v1024h393q170 0 258 -72.5t88 -203.5q0 -141 -98 -205q80 -31 123 -97.5t43 -150.5q0 -295 -367 -295h-440zM350 156h279q78 0 127 40t49 111.5t-49 111.5t-127 40h-279v-303zM350 596h238q63 0 107 34t44 101.5t-45 102t-106 34.5h-238v-272z" />
    <glyph glyph-name="afii10068" unicode="&#x433;" horiz-adv-x="843" 
d="M174 0v1024h608v-160h-434v-864h-174z" />
    <glyph glyph-name="afii10069" unicode="&#x434;" horiz-adv-x="1179" 
d="M31 160h119l440 880l442 -880h117v-418h-166v258h-786v-258h-166v418zM328 160h526l-264 528z" />
    <glyph glyph-name="afii10070" unicode="&#x435;" horiz-adv-x="1187" 
d="M94 512q0 223 149.5 375.5t364.5 152.5q221 0 359.5 -151.5t140.5 -419.5h-832q12 -137 108.5 -228t236.5 -91q176 0 299 122l112 -122q-157 -166 -411 -166q-225 0 -376 152.5t-151 375.5zM285 623h624q-18 123 -104 190.5t-207 65.5q-113 0 -200 -70t-113 -186z" />
    <glyph glyph-name="afii10072" unicode="&#x436;" horiz-adv-x="1613" 
d="M0 0l522 549l-463 475h215l447 -461v461h172v-457l446 457h215l-464 -475l524 -549h-221l-500 522v-522h-172v526l-500 -526h-221z" />
    <glyph glyph-name="afii10073" unicode="&#x437;" horiz-adv-x="1009" 
d="M92 188l144 97q43 -76 100 -113t160 -37q100 0 156.5 46t56.5 118q0 76 -60.5 119t-167.5 43h-133v139h127q82 0 137.5 37t55.5 111q0 68 -54.5 104.5t-132.5 36.5q-170 0 -233 -119l-129 78q104 193 364 192q152 0 253.5 -77.5t101.5 -204.5q0 -68 -34 -129.5t-97 -93.5
q84 -33 132 -100.5t48 -151.5q0 -125 -101.5 -212t-289.5 -87q-272 0 -404 204z" />
    <glyph glyph-name="afii10074" unicode="&#x438;" horiz-adv-x="1263" 
d="M174 -16v1040h174v-684l742 700v-1040h-175v674z" />
    <glyph glyph-name="afii10075" unicode="&#x439;" horiz-adv-x="1263" 
d="M174 -16v1040h174v-684l742 700v-1040h-175v674zM174 -16v1040h174v-684l742 700v-1040h-175v674zM315 1454h140q2 -100 52 -152.5t134 -52.5q82 0 132 52.5t52 152.5h142q-4 -154 -92.5 -236.5t-233.5 -82.5q-147 0 -235.5 82.5t-90.5 236.5z" />
    <glyph glyph-name="afii10076" unicode="&#x43a;" horiz-adv-x="1071" 
d="M174 0v1024h174v-457l455 457h221l-479 -475l526 -549h-223l-500 518v-518h-174z" />
    <glyph glyph-name="afii10077" unicode="&#x43b;" horiz-adv-x="1103" 
d="M10 0l541 1040l543 -1040h-205l-342 674l-346 -674h-191z" />
    <glyph glyph-name="afii10078" unicode="&#x43c;" horiz-adv-x="1406" 
d="M174 0v1026h154l377 -717l374 717h154v-1026h-174v668l-354 -684l-357 686v-670h-174z" />
    <glyph glyph-name="afii10079" unicode="&#x43d;" horiz-adv-x="1249" 
d="M174 0v1024h174v-422h553v422h174v-1024h-174v442h-553v-442h-174z" />
    <glyph glyph-name="afii10080" unicode="&#x43e;" horiz-adv-x="1251" 
d="M94 512q0 223 151.5 375.5t381 152.5t380 -152.5t151 -375.5t-151.5 -377q-150 -152 -379.5 -151.5t-381 153t-151.5 375.5zM276.5 512q0.5 -154 98.5 -258t251.5 -104t251 103t97.5 259t-97.5 259t-251 103t-252 -104t-98 -258z" />
    <glyph glyph-name="afii10081" unicode="&#x43f;" horiz-adv-x="1226" 
d="M174 0v1024h879v-1024h-176v864h-527v-864h-176z" />
    <glyph glyph-name="afii10082" unicode="&#x440;" horiz-adv-x="1292" 
d="M174 -377v1401h176v-102q129 119 326 118q225 0 373.5 -152.5t148.5 -375.5t-148.5 -375.5t-373.5 -152.5q-197 0 -326 118v-479h-176zM350 315q45 -74 130 -119.5t192 -45.5q150 0 247 104t97 258t-97 258t-247 104q-106 0 -191.5 -46t-130.5 -119v-394z" />
    <glyph glyph-name="afii10083" unicode="&#x441;" horiz-adv-x="1097" 
d="M94 512q0 223 150.5 375.5t376.5 152.5q233 0 391 -161l-113 -123q-119 119 -278 118q-150 0 -247.5 -104t-97.5 -258t97.5 -258t247.5 -104q160 0 278 118l113 -123q-158 -161 -391 -161q-225 0 -376 152.5t-151 375.5z" />
    <glyph glyph-name="afii10084" unicode="&#x442;" horiz-adv-x="888" 
d="M68 864v160h753v-160h-297v-864h-174v864h-282z" />
    <glyph glyph-name="afii10085" unicode="&#x443;" horiz-adv-x="1046" 
d="M12 1024h191l319 -745l322 745h190l-628 -1401h-187l211 463z" />
    <glyph glyph-name="afii10086" unicode="&#x444;" horiz-adv-x="1634" 
d="M88 512q0 221 149.5 374.5t387.5 153.5h106v414h174v-414h107q238 0 386 -153.5t148 -374.5t-148.5 -374.5t-385.5 -153.5h-107v-361h-174v361h-106q-238 0 -387.5 153.5t-149.5 374.5zM266 512q0 -156 99.5 -262.5t259.5 -106.5h106v738h-106q-160 0 -259.5 -106.5
t-99.5 -262.5zM905 143h107q160 0 259 106.5t99 262.5t-99.5 262.5t-258.5 106.5h-107v-738z" />
    <glyph glyph-name="afii10087" unicode="&#x445;" horiz-adv-x="1107" 
d="M47 0l399 520l-378 504h202l285 -377l281 377h202l-379 -504l400 -520h-205l-301 397l-301 -397h-205z" />
    <glyph glyph-name="afii10088" unicode="&#x446;" horiz-adv-x="1288" 
d="M174 0v1024h176v-864h516v864h176v-864h164v-420h-164v260h-868z" />
    <glyph glyph-name="afii10089" unicode="&#x447;" horiz-adv-x="1034" 
d="M82 690v334h176v-332q0 -82 35 -117.5t117 -35.5h274v485h176v-1024h-176v379h-281q-166 0 -243.5 75.5t-77.5 235.5z" />
    <glyph glyph-name="afii10090" unicode="&#x448;" horiz-adv-x="1673" 
d="M174 0v1024h174v-864h402v864h174v-864h401v864h174v-1024h-1325z" />
    <glyph glyph-name="afii10091" unicode="&#x449;" horiz-adv-x="1699" 
d="M174 0v1024h174v-864h402v864h174v-864h401v864h174v-864h129v-420h-164v260h-1290z" />
    <glyph glyph-name="afii10092" unicode="&#x44a;" horiz-adv-x="1173" 
d="M68 866v158h462v-381h185q190 0 288.5 -91t98.5 -228.5t-98.5 -230.5t-288.5 -93h-361v866h-286zM530 158h191q98 0 154.5 43t56.5 122.5t-56.5 125t-150.5 45.5h-195v-336z" />
    <glyph glyph-name="afii10093" unicode="&#x44b;" horiz-adv-x="1406" 
d="M174 0v1024h176v-381h162q190 0 288.5 -91t98.5 -228.5t-98.5 -230.5t-288.5 -93h-338zM350 158h168q98 0 154.5 43t56.5 122.5t-56.5 125t-150.5 45.5h-172v-336zM1057 0v1024h176v-1024h-176z" />
    <glyph glyph-name="afii10094" unicode="&#x44c;" horiz-adv-x="1009" 
d="M174 0v1024h176v-381h185q190 0 288.5 -91t98.5 -228.5t-98.5 -230.5t-288.5 -93h-361zM350 158h191q98 0 154.5 43t56.5 122.5t-56.5 125t-150.5 45.5h-195v-336z" />
    <glyph glyph-name="afii10095" unicode="&#x44d;" horiz-adv-x="1085" 
d="M74 145l112 123q119 -119 279 -118q133 0 225 81.5t113 210.5h-457v158h453q-29 119 -120 196.5t-214 77.5q-160 1 -279 -118l-112 123q158 162 391 161q225 0 375.5 -152.5t150.5 -375.5t-150.5 -375.5t-375.5 -152.5q-233 0 -391 161z" />
    <glyph glyph-name="afii10096" unicode="&#x44e;" horiz-adv-x="1734" 
d="M174 0v1024h176v-424h234q31 193 176 316.5t350 123.5q229 0 379.5 -152.5t150.5 -375.5t-150.5 -375.5t-379.5 -152.5q-211 0 -357.5 130t-170.5 328h-232v-442h-176zM760 512q0 -154 98 -258t252 -104t251 103t97 259t-97 259t-251 103t-252 -104t-98 -258z" />
    <glyph glyph-name="afii10097" unicode="&#x44f;" horiz-adv-x="1024" 
d="M82 0l328 391q-139 18 -213 109.5t-74 208.5q0 145 96 230t291 85h340v-1024h-176v387h-70l-321 -387h-201zM293 705q0 -166 207 -166h174v333h-174q-207 0 -207 -167z" />
    <glyph glyph-name="uni2000" unicode="&#x2000;" horiz-adv-x="936" 
 />
    <glyph glyph-name="uni2001" unicode="&#x2001;" horiz-adv-x="1872" 
 />
    <glyph glyph-name="uni2002" unicode="&#x2002;" horiz-adv-x="936" 
 />
    <glyph glyph-name="uni2003" unicode="&#x2003;" horiz-adv-x="1872" 
 />
    <glyph glyph-name="uni2004" unicode="&#x2004;" horiz-adv-x="624" 
 />
    <glyph glyph-name="uni2005" unicode="&#x2005;" horiz-adv-x="468" 
 />
    <glyph glyph-name="uni2006" unicode="&#x2006;" horiz-adv-x="312" 
 />
    <glyph glyph-name="uni2007" unicode="&#x2007;" horiz-adv-x="312" 
 />
    <glyph glyph-name="uni2008" unicode="&#x2008;" horiz-adv-x="234" 
 />
    <glyph glyph-name="uni2009" unicode="&#x2009;" horiz-adv-x="374" 
 />
    <glyph glyph-name="uni200A" unicode="&#x200a;" horiz-adv-x="104" 
 />
    <glyph glyph-name="uni2010" unicode="&#x2010;" horiz-adv-x="684" 
d="M94 469v182h498v-182h-498z" />
    <glyph glyph-name="uni2011" unicode="&#x2011;" horiz-adv-x="684" 
d="M94 469v182h498v-182h-498z" />
    <glyph glyph-name="figuredash" unicode="&#x2012;" horiz-adv-x="684" 
d="M94 469v182h498v-182h-498z" />
    <glyph glyph-name="endash" unicode="&#x2013;" horiz-adv-x="1077" 
d="M94 477v166h889v-166h-889z" />
    <glyph glyph-name="emdash" unicode="&#x2014;" horiz-adv-x="1685" 
d="M94 477v166h1497v-166h-1497z" />
    <glyph glyph-name="quoteleft" unicode="&#x2018;" horiz-adv-x="524" 
d="M137 911v254l117 289h117l-88 -291h104v-252h-250z" />
    <glyph glyph-name="quoteright" unicode="&#x2019;" horiz-adv-x="524" 
d="M137 1202v252h250v-254l-117 -289h-116l88 291h-105z" />
    <glyph glyph-name="quotesinglbase" unicode="&#x201a;" horiz-adv-x="524" 
d="M137 0v252h250v-254l-117 -289h-116l88 291h-105z" />
    <glyph glyph-name="quotedblleft" unicode="&#x201c;" horiz-adv-x="923" 
d="M137 911v254l117 289h117l-88 -291h104v-252h-250zM537 911v254l116 289h117l-88 -291h104v-252h-249z" />
    <glyph glyph-name="quotedblright" unicode="&#x201d;" horiz-adv-x="923" 
d="M137 1202v252h250v-254l-117 -289h-116l88 291h-105zM537 1202v252h249v-254l-116 -289h-117l88 291h-104z" />
    <glyph glyph-name="quotedblbase" unicode="&#x201e;" horiz-adv-x="923" 
d="M137 0v252h250v-254l-117 -289h-116l88 291h-105zM537 0v252h249v-254l-116 -289h-117l88 291h-104z" />
    <glyph glyph-name="ellipsis" unicode="&#x2026;" horiz-adv-x="1339" 
d="M72 135q0 63 45 107.5t106 44.5q63 0 107.5 -44t44.5 -108q0 -63 -44.5 -107t-107.5 -44q-61 0 -106 44t-45 107zM516 135q0 63 45 107.5t107 44.5q63 0 107 -44t44 -108q0 -63 -44 -107t-107 -44q-61 0 -106.5 44t-45.5 107zM963 135q0 63 45 107.5t106 44.5
q63 0 107.5 -44t44.5 -108q0 -63 -44.5 -107t-107.5 -44q-61 0 -106 44t-45 107z" />
    <glyph glyph-name="uni202F" unicode="&#x202f;" horiz-adv-x="374" 
 />
    <glyph glyph-name="guilsinglleft" unicode="&#x2039;" horiz-adv-x="591" 
d="M59 512l312 453l127 -86l-252 -367l252 -367l-127 -86z" />
    <glyph glyph-name="guilsinglright" unicode="&#x203a;" horiz-adv-x="591" 
d="M94 145l252 367l-252 367l127 86l311 -453l-311 -453z" />
    <glyph glyph-name="uni205F" unicode="&#x205f;" horiz-adv-x="468" 
 />
    <glyph glyph-name="Euro" unicode="&#x20ac;" horiz-adv-x="1460" 
d="M18 520l58 123h180q-4 20 -4 41v43v43.5t4 42.5h-238l58 125h203q33 117 98 214t157.5 168t207 110.5t243.5 39.5q135 0 235.5 -32.5t190.5 -91.5l-68 -156q-68 51 -154.5 85t-203.5 34q-92 0 -175 -27t-150.5 -75t-119 -116.5t-79.5 -152.5h764l-58 -125h-737
q-2 -23 -3 -43t-1 -43t1 -43t3 -41h647l-57 -123h-561q29 -86 80 -154.5t118.5 -117.5t151.5 -76t176 -27q80 0 149.5 19.5t129.5 54.5v-182q-129 -53 -279 -53q-129 0 -243.5 39.5t-207 110.5t-159 170t-96.5 216h-261z" />
    <glyph glyph-name="trademark" unicode="&#x2122;" horiz-adv-x="1667" 
d="M100 1331v123h533v-123h-201v-604h-135v604h-197zM756 727v760l374 -369l375 369v-760h-133v467l-242 -238l-243 238v-467h-131z" />
    <glyph glyph-name="uni25FC" unicode="&#x25fc;" horiz-adv-x="1024" 
d="M0 0v1024h1024v-1024h-1024z" />
    </font>
</defs>
</svg>
