<svg width="766" height="277" viewBox="0 0 766 277" xmlns="http://www.w3.org/2000/svg" xmlns:xlink="http://www.w3.org/1999/xlink"><defs><path id="path-1" d="M0 0h779v296H0z"/><style>@font-face{font-family:&apos;MyriadPro-Regular&apos;;src:url(../../../../fonts/MyriadPro-Regular.eot);src:url(../../../../fonts/MyriadPro-Regular.eot?#iefix) format(&apos;embedded-opentype&apos;),url(../../../../fonts/MyriadPro-Regular.woff2) format(&apos;woff2&apos;),url(../../../../fonts/MyriadPro-Regular.woff) format(&apos;woff&apos;),url(../../../../fonts/MyriadPro-Regular.ttf) format(&apos;truetype&apos;),url(../../../../fonts/MyriadPro-Regular.svg#MyriadPro-Regular) format(&apos;svg&apos;);font-weight:400;font-style:normal}</style></defs><g id="Page-1" fill="none" fill-rule="evenodd"><g id="Как-работает-программа" transform="translate(-6 -6)"><g id="Clipped"><mask id="mask-2" fill="#fff"><use xlink:href="#path-1"/></mask></g><path id="Rectangle-path" fill="#67A0DA" fill-rule="nonzero" d="M375.047 81.667h206.505v34.875H375.047z"/><path id="Rectangle-path" fill="#584E4E" fill-rule="nonzero" d="M375.047 33.667h206.505v34.875H375.047z"/><path id="Rectangle-path" fill="#E2E2E2" fill-rule="nonzero" d="M186.667 44.411h156v163.594h-156z"/><path id="Rectangle-path" d="M8 213.5h178.667v84.667H8z"/><g id="Group" transform="translate(8 210.6)" font-size="10" font-family="MyriadPro-Regular, Myriad Pro, Arial" fill="#000"><text id="Ежегодно-вы-размещаете"><tspan x="0" y="10">Ежегодно вы размещаете</tspan></text><text id="определенную-сумму"><tspan x="0" y="22">определенную сумму</tspan></text><text id="на-специальный-накопительный"><tspan x="0" y="34">на специальный накопительный</tspan></text><text id="счет,-открытый-в-рамках"><tspan x="0" y="46">счет, открытый в рамках</tspan></text><text id="программы."><tspan x="0" y="58">программы.</tspan></text></g><path id="Rectangle-path" d="M21 94.667h127.333v70H21z"/><g id="Group" transform="translate(21 89.447)" font-size="18" font-family="MyriadPro-Regular, Myriad Pro, Arial" fill="#000"><text id="Вы-ежегодно"><tspan x="0" y="18">Вы ежегодно</tspan></text><text id="размещаете"><tspan x="0" y="39.6">размещаете</tspan></text><text id="300-тыс."><tspan x="0" y="61.199">300 тыс.</tspan></text></g><path id="Rectangle-path" d="M623 94.667h127.333v70H623z"/><g id="Group" transform="translate(623 89.447)" font-size="18" font-family="MyriadPro-Regular, Myriad Pro, Arial" fill="#000"><text id="Вы-получаете"><tspan x="0" y="18">Вы получаете</tspan></text><text id="капитал-2,1-млн"><tspan x="0" y="39.6">капитал 2,1 млн</tspan></text><text id="рублей"><tspan x="0" y="61.199">рублей</tspan></text></g><path id="Rectangle-path" d="M200.333 94.667h127.333v70H200.333z"/><g id="Group" transform="translate(200.333 89.447)" font-size="18" font-family="MyriadPro-Regular, Myriad Pro, Arial" fill="#000"><text id="Вы-ежегодно"><tspan x="0" y="18">Вы ежегодно</tspan></text><text id="проходите"><tspan x="0" y="39.6">проходите</tspan></text><text id="чек-ап"><tspan x="0" y="61.199">чек-ап</tspan></text></g><path id="Rectangle-path" d="M413 140.667h173.333v70H413z"/><g id="Group" transform="translate(413 135.447)" font-size="18" font-family="MyriadPro-Regular, Myriad Pro, Arial" fill="#000"><text id="Организуем-лечение"><tspan x="0" y="18">Организуем лечение</tspan></text><text id="в-Израиле-на-сумму"><tspan x="0" y="39.6">в Израиле на сумму</tspan></text><text id="до-9-млн.-в-год"><tspan x="0" y="61.199">до 9 млн. в год</tspan></text></g><path id="Rectangle-path" d="M214.214 6.667h321.667v20.73H214.214z"/><text id="Как-работает-программа:" fill="#000" font-family="MyriadPro-Regular, Myriad Pro, Arial" font-size="21"><tspan x="260.368" y="21.576">Как работает программа:</tspan></text><path id="Rectangle-path" d="M386.333 44.411h173.333v20.922H386.333z"/><text id="Здоровье-в-норме" fill="#FFF" font-family="MyriadPro-Regular, Myriad Pro, Arial" font-size="18"><tspan x="386.334" y="57.192">Здоровье в норме</tspan></text><path id="Rectangle-path" d="M386.333 92.078h195.219V113H386.333z"/><text id="Обнаружено-заболевание" fill="#FFF" font-family="MyriadPro-Regular, Myriad Pro, Arial" font-size="16"><tspan x="386.334" y="103.438">Обнаружено заболевание</tspan></text><path id="Rectangle-path" d="M188.833 213.5H367.5v84.667H188.833z"/><g id="Group" transform="translate(188.833 210.6)" font-size="10" font-family="MyriadPro-Regular, Myriad Pro, Arial" fill="#000"><text id="В-течение-срока-действия"><tspan x="0" y="10">В течение срока действия</tspan></text><text id="программы-вы-получаете"><tspan x="0" y="22">программы вы получаете</tspan></text><text id="уникальную-услугу-–-ежегодный"><tspan x="0" y="34">уникальную услугу – ежегодный</tspan></text><text id="медицинский-чек-ап-в-лучших"><tspan x="0" y="46">медицинский чек-ап в лучших</tspan></text><text id="российский-клиниках."><tspan x="0" y="58">российский клиниках.</tspan></text></g><path id="Rectangle-path" d="M374.333 213.5H591v84.667H374.333z"/><g id="Group" transform="translate(374.334 210.6)" font-size="10" font-family="MyriadPro-Regular, Myriad Pro, Arial" fill="#000"><text id="Если-в-течение-программы-будет-выявлено"><tspan x="0" y="10">Если в течение программы будет выявлено</tspan></text><text id="серьезное-заболевание,-вам-организуют-лечение"><tspan x="0" y="22">серьезное заболевание, вам организуют лечение</tspan></text><text id="в-лучших-клиниках-Израиля-и-Германии.-Лечение"><tspan x="0" y="34">в лучших клиниках Израиля и Германии. Лечение</tspan></text><text id="будет-оплачено-страховой-компанией.--Сумма-на"><tspan x="0" y="46">будет оплачено страховой компанией. Сумма на</tspan></text><text id="лечение-зависит-от-ежегодного-взноса-и-возоб"><tspan x="0" y="58">лечение зависит от ежегодного взноса и возоб</tspan></text><text id="-"><tspan x="204.657" y="58">-</tspan></text><text id="новляется-каждый-год."><tspan x="0" y="70">новляется каждый год.</tspan></text></g><path id="Rectangle-path" d="M615 213.5h250.667v84.667H615z"/><g id="Group" transform="translate(615 210.6)" font-size="10" font-family="MyriadPro-Regular, Myriad Pro, Arial" fill="#000"><text id="По-окончании-вы-получите"><tspan x="0" y="10">По окончании вы получите</tspan></text><text id="накопленный-капитал-вне"><tspan x="0" y="22">накопленный капитал вне</tspan></text><text id="зависимости-от-того,-было-ли"><tspan x="0" y="34">зависимости от того, было ли</tspan></text><text id="оплачено-лечение."><tspan x="0" y="46">оплачено лечение.</tspan></text></g><path id="Rectangle-path" stroke="#A3A3A3" stroke-width=".983" d="M7 44.411h156v163.594H7zM615 44.411h156v163.594H615z"/><path id="Rectangle-path" stroke="#A3A3A3" stroke-width=".73" d="M401.667 129.667h179.885v78.339H401.667z"/><g id="Group" transform="translate(21 65)"><path d="M7.582 5.475h.651V2.567h2.292c.408 0 .712.017.92.052.886.13 1.433.833 1.433 1.702 0 .521-.165.964-.495 1.32-.33.356-.929.529-1.788.529H9.04v.538h3.516v.703H9.04v1.233h-.807V7.411h-.651v-.703h.651V6.17h-.651v-.695zm1.458-.018h1.563c1.05 0 1.432-.408 1.432-1.111 0-.512-.269-.894-.694-1.007-.13-.035-.382-.052-.755-.052H9.04v2.17z" id="Shape" fill="#4D4545" fill-rule="nonzero"/><path id="Rectangle-path" stroke="#4D4545" stroke-width=".725" d="M.265.333h19.93V11H.265z"/><path id="Rectangle-path" stroke="#4D4545" stroke-width=".75" d="M.265 11h19.93v3.167H.265zM.265 14.167h19.93v3.167H.265z"/></g><g id="Group" transform="translate(625 66)"><path d="M8.082 5.142h.651V2.234h2.292c.408 0 .712.017.92.052.886.13 1.433.833 1.433 1.702 0 .521-.165.964-.495 1.32-.33.356-.929.529-1.788.529H9.541v.538h3.516v.703H9.541v1.233h-.807V7.078h-.651v-.703h.651v-.538h-.651v-.695h-.001zm1.458-.018h1.563c1.05 0 1.432-.408 1.432-1.111 0-.512-.269-.894-.695-1.007-.13-.035-.382-.052-.755-.052H9.54v2.17z" id="Shape" fill="#4D4545" fill-rule="nonzero"/><path id="Rectangle-path" stroke="#4D4545" stroke-width=".725" d="M.765 0h19.93v10.667H.765z"/><path id="Rectangle-path" stroke="#4D4545" stroke-width=".75" d="M.765 10.667h19.93v3.167H.765z"/><path id="Rectangle-path" stroke="#4D4545" stroke-width=".75" d="M.765 13.833h19.93V17H.765z"/></g><path d="M203.333 65.333s-.964 9.783 4.217 9.783c5.181 0 5.616-2.984 5.616-9.783M207.767 75.333s.733 6 4.733 6.167c4 .167 5.5-4.833 5.5-6.167" id="Shape" stroke="#584E4E"/><circle id="Oval" stroke="#584E4E" cx="218.333" cy="73" r="2.5"/><path d="M163 97.75h23.667M173 94.667l3 3.083-3 3.789" id="Shape" stroke="#A3A3A3" stroke-width=".983"/><path d="M342.667 97.75h32.38" id="Shape" stroke="#A3A3A3" stroke-width="1.15"/><path id="Shape" stroke="#A3A3A3" stroke-width=".943" d="M375.047 51.104H353.25v46.999"/><path id="Shape" stroke="#A3A3A3" stroke-width=".983" d="M364.5 94.667l3 3.083-3 3.789"/><path d="M595.75 97.75H615" id="Shape" stroke="#A3A3A3" stroke-width=".887"/><path id="Shape" stroke="#A3A3A3" stroke-width=".983" d="M605.5 94.667l3 3.083-3 3.789M363 47.668l3 3.083-3 3.789M394.807 144.564l3 3.083-3 3.789"/><path id="Shape" stroke="#A3A3A3" stroke-width=".943" d="M581.552 52h14.198v96h-14.198M401.667 148h-15.334v-30.25"/></g></g></svg>