<svg width="315" height="874" viewBox="0 0 315 874" xmlns="http://www.w3.org/2000/svg"><style>@font-face{font-family:&apos;MyriadPro-Regular&apos;;src:url(../../../../fonts/MyriadPro-Regular.eot);src:url(../../../../fonts/MyriadPro-Regular.eot?#iefix) format(&apos;embedded-opentype&apos;),url(../../../../fonts/MyriadPro-Regular.woff2) format(&apos;woff2&apos;),url(../../../../fonts/MyriadPro-Regular.woff) format(&apos;woff&apos;),url(../../../../fonts/MyriadPro-Regular.ttf) format(&apos;truetype&apos;),url(../../../../fonts/MyriadPro-Regular.svg#MyriadPro-Regular) format(&apos;svg&apos;);font-weight:400;font-style:normal}</style><g id="Page-1" fill="none" fill-rule="evenodd"><g id="Как-работает-программа_320" transform="translate(-5 -5)"><path id="XMLID_1_" d="M.214 5.253h321.667v20.73H.214z"/><text id="XMLID_3_" fill="#010202" font-family="MyriadPro-Regular, Myriad Pro, Arial" font-size="21"><tspan x="46.368" y="20.163">Как работает программа:</tspan></text><path id="XMLID_4_" d="M179.931 91.951H320v84.667H179.931z"/><g id="XMLID_18_" transform="translate(179.931 89.05)" font-size="10" font-family="MyriadPro-Regular, Myriad Pro, Arial" fill="#010202"><text id="Ежегодно-вы-размещаете"><tspan x="0" y="10">Ежегодно вы размещаете</tspan></text><text id="определенную-сумму"><tspan x="0" y="22">определенную сумму</tspan></text><text id="на-специальный-накопитель"><tspan x="0" y="34">на специальный накопитель</tspan></text><text id="-"><tspan x="123.658" y="34">-</tspan></text><text id="ный-счет,-открытый-в-рамках"><tspan x="0" y="46">ный счет, открытый в рамках</tspan></text><text id="программы."><tspan x="0" y="58">программы.</tspan></text></g><path id="XMLID_2_" d="M27.172 99.284h127.333v70H27.172z"/><g id="XMLID_16_" transform="translate(27.172 94.064)" font-size="18" font-family="MyriadPro-Regular, Myriad Pro, Arial" fill="#010202"><text id="Вы-ежегодно"><tspan x="0" y="18">Вы ежегодно</tspan></text><text id="размещаете"><tspan x="0" y="39.6">размещаете</tspan></text><text id="300-тыс."><tspan x="0" y="61.199">300 тыс.</tspan></text></g><path id="XMLID_15_" stroke="#B3B2B2" stroke-width=".983" d="M13.172 49.029h156v163.594h-156z"/><g id="XMLID_7_" transform="translate(27 69)"><g id="XMLID_11_" transform="translate(7 3)" fill-rule="nonzero" fill="#615858"><path d="M.754 3.093h.651V.185h2.292c.408 0 .712.017.92.052.886.13 1.433.833 1.433 1.702 0 .521-.165.964-.495 1.32-.33.356-.929.529-1.788.529H2.213v.538h3.516v.703H2.213v1.233h-.807V5.029H.755v-.703h.651v-.538H.755v-.695H.754zm1.459-.018h1.563c1.05 0 1.432-.408 1.432-1.111 0-.512-.269-.894-.694-1.007-.13-.035-.382-.052-.755-.052H2.214v2.17h-.001z" id="XMLID_12_"/></g><path id="XMLID_10_" stroke="#615858" stroke-width=".725" d="M.437.951h19.93v10.667H.437z"/><path id="XMLID_9_" stroke="#615858" stroke-width=".75" d="M.437 11.618h19.93v3.167H.437z"/><path id="XMLID_8_" stroke="#615858" stroke-width=".75" d="M.437 14.784h19.93v3.167H.437z"/></g><path d="M54.186 212.623v23.667" id="XMLID_6_" stroke="#B3B2B2" stroke-width=".983"/><path id="XMLID_5_" stroke="#B3B2B2" stroke-width=".983" d="M57.27 222.623l-3.084 3-3.789-3"/><path id="XMLID_82_" stroke="#B3B2B2" stroke-width=".983" d="M57.27 412.333l-3.084 3-3.789-3"/><path id="XMLID_77_" stroke="#B3B2B2" stroke-width=".983" d="M54.186 399.883v23.667H6.172v78.872h10.584"/><path id="XMLID_27_" fill="#E8E8E8" fill-rule="nonzero" d="M13.172 236.29h156v163.594h-156z"/><path id="XMLID_17_" d="M26.839 286.545h127.333v70H26.839z"/><g id="XMLID_25_" transform="translate(26.839 281.325)" font-size="18" font-family="MyriadPro-Regular, Myriad Pro, Arial" fill="#010202"><text id="Вы-ежегодно"><tspan x="0" y="18">Вы ежегодно</tspan></text><text id="проходите"><tspan x="0" y="39.6">проходите</tspan></text><text id="чек-ап"><tspan x="0" y="61.199">чек-ап</tspan></text></g><path id="XMLID_19_" d="M179.931 279.212H316.31v84.667H179.931z"/><g id="XMLID_28_" transform="translate(179.93 276.31)" font-size="10" font-family="MyriadPro-Regular, Myriad Pro, Arial" fill="#010202"><text id="В-течение-срока-действия"><tspan x="0" y="10">В течение срока действия</tspan></text><text id="программы-вы-получаете"><tspan x="0" y="22">программы вы получаете</tspan></text><text id="уникальную-услугу-–"><tspan x="0" y="34">уникальную услугу –</tspan></text><text id="ежегодный-медицинский"><tspan x="0" y="46">ежегодный медицинский</tspan></text><text id="чек-ап-в-лучших"><tspan x="0" y="58">чек-ап в лучших</tspan></text><text id="российский-клиниках."><tspan x="0" y="70">российский клиниках.</tspan></text></g><g id="XMLID_26_" transform="translate(28 257)" stroke="#6C6161"><path d="M.839.212s-.964 9.783 4.217 9.783c5.181 0 5.616-2.984 5.616-9.783" id="XMLID_24_"/><path d="M5.517 9.936s.733 6 4.733 6.167c4 .167 5.5-4.833 5.5-6.167" id="XMLID_30_"/><circle id="XMLID_29_" cx="16.083" cy="7.603" r="2.5"/></g><path id="XMLID_60_" fill="#79B1E0" fill-rule="nonzero" d="M18.363 481.55h206.505v34.875H18.363z"/><path id="XMLID_59_" fill="#6C6161" fill-rule="nonzero" d="M18.363 433.55h206.505v34.875H18.363z"/><path id="XMLID_34_" d="M21.006 764.808h127.333v70H21.006z"/><g id="XMLID_57_" transform="translate(21.006 759.588)" font-size="18" font-family="MyriadPro-Regular, Myriad Pro, Arial" fill="#010202"><text id="Вы-получаете"><tspan x="0" y="18">Вы получаете</tspan></text><text id="капитал-2,1-млн"><tspan x="0" y="39.6">капитал 2,1 млн</tspan></text><text id="рублей"><tspan x="0" y="61.199">рублей</tspan></text></g><path id="XMLID_33_" d="M50.672 540.55h173.333v70H50.672z"/><g id="XMLID_55_" transform="translate(50.672 535.33)" font-size="18" font-family="MyriadPro-Regular, Myriad Pro, Arial" fill="#010202"><text id="Организуем-лечение"><tspan x="0" y="18">Организуем лечение</tspan></text><text id="в-Израиле-на-сумму"><tspan x="0" y="39.6">в Израиле на сумму</tspan></text><text id="до-9-млн.-в-год"><tspan x="0" y="61.199">до 9 млн. в год</tspan></text></g><path id="XMLID_32_" d="M29.649 444.295h173.333v20.922H29.649z"/><text id="XMLID_53_" fill="#FFF" font-family="MyriadPro-Regular, Myriad Pro, Arial" font-size="18"><tspan x="29.649" y="457.076">Здоровье в норме</tspan></text><path id="XMLID_31_" d="M29.649 491.962h195.219v20.922H29.649z"/><text id="XMLID_51_" fill="#FFF" font-family="MyriadPro-Regular, Myriad Pro, Arial" font-size="16"><tspan x="29.649" y="503.322">Обнаружено заболевание</tspan></text><path id="XMLID_50_" stroke="#B3B2B2" stroke-width=".983" d="M13.006 714.553h156v163.594h-156z"/><path id="XMLID_49_" stroke="#B3B2B2" stroke-width=".73" d="M39.339 529.55h179.885v78.339H39.339z"/><g id="XMLID_41_" transform="translate(23 736)"><g id="XMLID_45_" transform="translate(8 2)" fill-rule="nonzero" fill="#615858"><path d="M.088 3.283h.651V.375h2.292c.408 0 .712.017.92.052.886.13 1.433.833 1.433 1.702 0 .521-.165.964-.495 1.32-.33.356-.929.529-1.788.529H1.547v.538h3.516v.703H1.547v1.233H.74V5.219H.089v-.703H.74v-.538H.089v-.695H.088zm1.458-.018h1.563c1.05 0 1.432-.408 1.432-1.111 0-.512-.269-.894-.694-1.007-.13-.035-.382-.052-.755-.052H1.547v2.17h-.001z" id="XMLID_46_"/></g><path id="XMLID_44_" stroke="#615858" stroke-width=".725" d="M.77.141H20.7v10.667H.77z"/><path id="XMLID_43_" stroke="#615858" stroke-width=".75" d="M.77 10.808H20.7v3.167H.77z"/><path id="XMLID_42_" stroke="#615858" stroke-width=".75" d="M.77 13.975H20.7v3.167H.77z"/></g><path id="XMLID_39_" stroke="#B3B2B2" stroke-width=".983" d="M202.714 750.695l-3 3.083 3 3.789"/><path id="XMLID_38_" stroke="#B3B2B2" stroke-width=".983" d="M32.48 544.447l3 3.084-3 3.789"/><path id="XMLID_80_" stroke="#B3B2B2" stroke-width=".983" d="M12.256 499.551l3 3.084-3 3.789"/><path id="XMLID_81_" stroke="#B3B2B2" stroke-width=".983" d="M12.256 447.717l3 3.083-3 3.789"/><path id="XMLID_35_" stroke="#B3B2B2" stroke-width=".943" d="M225.225 444.383H271v309.748H169.172"/><path id="XMLID_36_" stroke="#B3B2B2" stroke-width=".943" d="M39.339 547.883H24.006v-30.25"/><path id="XMLID_40_" d="M16.756 626.886h216.667v84.667H16.756z"/><g id="XMLID_74_" transform="translate(16.756 623.985)" font-size="10" font-family="MyriadPro-Regular, Myriad Pro, Arial" fill="#010202"><text id="Если-в-течение-программы-будет-выявлено"><tspan x="0" y="10">Если в течение программы будет выявлено</tspan></text><text id="серьезное-заболевание,-вам-организуют-лечение"><tspan x="0" y="22">серьезное заболевание, вам организуют лечение</tspan></text><text id="в-лучших-клиниках-Израиля-и-Германии.-Лечение"><tspan x="0" y="34">в лучших клиниках Израиля и Германии. Лечение</tspan></text><text id="будет-оплачено-страховой-компанией.--Сумма-на"><tspan x="0" y="46">будет оплачено страховой компанией. Сумма на</tspan></text><text id="лечение-зависит-от-ежегодного-взноса-и-возоб"><tspan x="0" y="58">лечение зависит от ежегодного взноса и возоб</tspan></text><text id="-"><tspan x="204.657" y="58">-</tspan></text><text id="новляется-каждый-год."><tspan x="0" y="70">новляется каждый год.</tspan></text></g><path id="XMLID_73_" d="M182.799 782.5h130.644v84.667H182.799z"/><g id="XMLID_76_" transform="translate(182.8 779.6)" font-size="10" font-family="MyriadPro-Regular, Myriad Pro, Arial" fill="#010202"><text id="По-окончании-вы-получите"><tspan x="0" y="10">По окончании вы получите</tspan></text><text id="накопленный-капитал-вне"><tspan x="0" y="22">накопленный капитал вне</tspan></text><text id="зависимости-от-того,-было"><tspan x="0" y="34">зависимости от того, было</tspan></text><text id="ли-оплачено-лечение."><tspan x="0" y="46">ли оплачено лечение.</tspan></text></g><path d="M6.172 451.153h12.191" id="XMLID_79_" stroke="#B3B2B2" stroke-width=".983"/></g></g></svg>