<svg xmlns="http://www.w3.org/2000/svg" width="313" height="297" viewBox="0 0 313 297"><g fill="none" fill-rule="evenodd" transform="translate(-2)"><path fill="#E7F0FB" fill-rule="nonzero" d="M144.167 267.333V109.667l-40.71 22L56.52 192 9.833 267.333"/><path fill="#C1D8F1" fill-rule="nonzero" stroke="#7AB3E1" stroke-width="1.222" d="M144.167 11.667L102.197 51 52.88 145.333s-44.585 122-43.09 122c1.492 0 18.18-30.333 18.18-30.333l28.52-45 46.95-60.333 40.226-22 .5-98z"/><path stroke="#010202" d="M9.85 2.667v264.666h280.047"/><path fill="#010202" fill-rule="nonzero" d="M3.85 14h11.667L9.85 0m273.047 261.5v11.667l14-5.667"/><circle cx="8.851" cy="267.333" r="6" fill="#7AB3E1" fill-rule="nonzero" stroke="#010202"/><circle cx="145.315" cy="11.667" r="6" fill="#FFF" fill-rule="nonzero" stroke="#7AB3E1"/><circle cx="140.297" cy="267.333" r="6" fill="#7AB3E1" fill-rule="nonzero" stroke="#010202"/><circle cx="98.5" cy="267.333" r="6" fill="#FFF" fill-rule="nonzero" stroke="#010202"/><circle cx="52.684" cy="267.333" r="6" fill="#FFF" fill-rule="nonzero" stroke="#010202"/><path stroke="#C1D8F1" stroke-width="1.214" d="M151.315 11.667h59.61" stroke-dasharray="7.287"/><path stroke="#010202" d="M214.26 267.333s12.666-2.333 12.666-13v-95.667s3.333-12 12.667-16.333c-9-4.333-13.333-11.667-13.667-17.333-.333-7.333 0-100 0-100s-2.333-13.333-15-13.333M145.13 264.002s4.912-4.002 5.465-17.335c.262-6.305 0-47.27 0-47.27s1.106-7.134 4.202-9.71c-2.986-2.577-4.424-6.937-4.534-10.306-.11-4.36 0-49.713 0-49.713S149.49 112 145.287 112"/><path d="M3.85 288h184v18h-184z"/><text fill="#010202" font-family="MyriadPro-Regular, Myriad Pro, Arial" font-size="9"><tspan x="3.851" y="294.39">Начало программы 100 000 руб.</tspan></text><path d="M.35 253.002h66.334v18H.35z"/><text fill="#010202" font-family="MyriadPro-Regular, Myriad Pro, Arial" font-size="9"><tspan x="19.793" y="259.392">1-й год</tspan></text><path d="M43.793 253.002h66.333v18H43.793z"/><text fill="#010202" font-family="MyriadPro-Regular, Myriad Pro, Arial" font-size="9"><tspan x="63.235" y="259.392">2-й год</tspan></text><path d="M88.464 253.002h66.333v18H88.464z"/><text fill="#010202" font-family="MyriadPro-Regular, Myriad Pro, Arial" font-size="9"><tspan x="107.906" y="259.392">3-й год</tspan></text><path d="M69.333 197.67h66.333V229H69.333z"/><g fill="#010202" font-size="12" font-family="MyriadPro-Regular, Myriad Pro, Arial"><text transform="translate(83.712 195.19)"><tspan x="5" y="11">РОСТ</tspan></text><text transform="translate(83.712 195.19)"><tspan x=".284" y="25.4">РЫНКА</tspan></text></g><path d="M64.167 72.778h83.667v51.183H64.167z"/><g fill="#010202" font-size="12" font-family="MyriadPro-Regular, Myriad Pro, Arial"><text transform="translate(71.212 70.298)"><tspan x="21" y="11">РОСТ</tspan></text><text transform="translate(71.212 70.298)"><tspan x="16.284" y="25.4">РЫНКА</tspan></text><text transform="translate(71.212 70.298)"><tspan x=".787" y="39.801">С УЧЕТОМ КУ</tspan></text></g><path d="M139.715 288h184v18h-184z"/><text fill="#010202" font-family="MyriadPro-Regular, Myriad Pro, Arial" font-size="9"><tspan x="139.715" y="294.39">Окончание программы</tspan></text><g transform="translate(154 148)"><circle cx="27.359" cy="25.225" r="24.551" stroke="#E7F0FB" stroke-width="1.27"/><path d="M.797 19.35H53.92v19.42H.797z"/><text fill="#010202" font-family="MyriadPro-Regular, Myriad Pro, Arial" font-size="17.778"><tspan x="5.901" y="31.971">+30%</tspan></text><path d="M2.808 55.702h66.14v30.055H2.807z"/><g fill="#010202" font-size="7.619" font-family="MyriadPro-Regular, Myriad Pro, Arial"><text transform="translate(2.808 53.11)"><tspan x="0" y="8">Доход 30 000 руб.</tspan></text><text transform="translate(2.808 53.11)"><tspan x="0" y="17.144">на обычном росте</tspan></text><text transform="translate(2.808 53.11)"><tspan x="0" y="26.286">рынка 30%</tspan></text></g></g><g transform="translate(229 21)"><circle cx="30.469" cy="31.223" r="30.428" stroke="#7AB3E1" stroke-width="1.152"/><path d="M.04 24.047h60.857v17.617H.04z"/><text fill="#010202" font-family="MyriadPro-Regular, Myriad Pro, Arial" font-size="16.126"><tspan x="5.2" y="35.496">+43,7%</tspan></text><path d="M2.715 70.673H82v43.387H2.715z"/><g fill="#010202" font-size="6.911" font-family="MyriadPro-Regular, Myriad Pro, Arial"><text transform="translate(2.715 69.58)"><tspan x="0" y="6">Доход клиента</tspan></text><text transform="translate(2.715 69.58)"><tspan x="0" y="14.293">программы</tspan></text><text transform="translate(2.715 69.58)"><tspan x="0" y="22.586">«КАПИТАЛ В ПЛЮС»</tspan></text><text transform="translate(2.715 69.58)"><tspan x="0" y="30.88">выше, то есть 43 700 руб.</tspan></text></g></g><circle cx="145.315" cy="109.667" r="6" fill="#FFF" fill-rule="nonzero" stroke="#7AB3E1"/></g></svg>