<svg xmlns="http://www.w3.org/2000/svg" width="710" height="300" viewBox="0 0 710 300"><g fill="none" fill-rule="evenodd" transform="translate(1)"><path fill="#E1EBF9" fill-rule="nonzero" d="M367 267.333V109.667l-109 22L132.333 192l-125 75.333"/><path fill="#B4CEED" fill-rule="nonzero" stroke="#67A2DA" stroke-width="2" d="M367 11.667L254.667 51l-132 94.333s-119.333 122-115.333 122S56 237 56 237l76.333-45L258 131.667l107.667-22 1.333-98z"/><path stroke="#000" d="M7.333 2.667v264.666H688"/><path fill="#000" fill-rule="nonzero" d="M1.333 14H13L7.333 0m667.834 261.5v11.667l14-5.667"/><circle cx="6.333" cy="267.333" r="6" fill="#67A2DA" fill-rule="nonzero" stroke="#000"/><circle cx="367" cy="109.667" r="6" fill="#FFF" fill-rule="nonzero" stroke="#67A2DA"/><circle cx="367" cy="11.667" r="6" fill="#FFF" fill-rule="nonzero" stroke="#67A2DA"/><circle cx="367" cy="267.333" r="6" fill="#67A2DA" fill-rule="nonzero" stroke="#000"/><circle cx="249.333" cy="267.333" r="6" fill="#FFF" fill-rule="nonzero" stroke="#000"/><circle cx="131.333" cy="267.333" r="6" fill="#FFF" fill-rule="nonzero" stroke="#000"/><path stroke="#B4CEED" stroke-width="1.971" d="M373 11.667h157" stroke-dasharray="11.826"/><path stroke="#000" stroke-width="1.971" d="M535 267.333s12.667-2.333 12.667-13v-95.667s3.333-12 12.667-16.333C551.334 138 547 130.667 546.667 125c-.333-7.333 0-100 0-100s-2.333-13.333-15-13.333"/><path stroke="#000" stroke-width="1.408" d="M371.99 264.002s12.707-4.002 14.138-17.335c.677-6.305 0-47.27 0-47.27s2.86-7.134 10.873-9.71c-7.724-2.577-11.444-6.937-11.73-10.306-.286-4.36 0-49.713 0-49.713S383.266 112 372.393 112"/><circle cx="441.667" cy="168.667" r="38.667" stroke="#E1EBF9" stroke-width="2"/><circle cx="613.857" cy="100.833" r="52.833" stroke="#67A2DA" stroke-width="2"/><path d="M7.333 288h184v18h-184z"/><text fill="#000" font-family="MyriadPro-Regular, Myriad Pro, Arial" font-size="12"><tspan x="7.333" y="296.519">Начало программы 100 000 руб.</tspan></text><path d="M37.333 253.002h66.333v18H37.333z"/><text fill="#000" font-family="MyriadPro-Regular, Myriad Pro, Arial" font-size="12"><tspan x="52.2" y="261.522">1-й год</tspan></text><path d="M158.167 253.002H224.5v18h-66.333z"/><text fill="#000" font-family="MyriadPro-Regular, Myriad Pro, Arial" font-size="12"><tspan x="173.034" y="261.522">2-й год</tspan></text><path d="M275.667 253.002H342v18h-66.333z"/><text fill="#000" font-family="MyriadPro-Regular, Myriad Pro, Arial" font-size="12"><tspan x="290.534" y="261.522">3-й год</tspan></text><path d="M275.667 175.67H342V207h-66.333z"/><g fill="#000" font-size="12" font-family="MyriadPro-Regular, Myriad Pro, Arial"><text transform="translate(290.045 173.188)"><tspan x="5" y="11">РОСТ</tspan></text><text transform="translate(290.045 173.188)"><tspan x=".284" y="25.4">РЫНКА</tspan></text></g><path d="M267 58.483h83.667v51.183H267z"/><g fill="#000" font-size="12" font-family="MyriadPro-Regular, Myriad Pro, Arial"><text transform="translate(274.045 56.003)"><tspan x="21" y="11">РОСТ</tspan></text><text transform="translate(274.045 56.003)"><tspan x="16.284" y="25.4">РЫНКА</tspan></text><text transform="translate(274.045 56.003)"><tspan x=".787" y="39.801">С УЧЕТОМ КУ</tspan></text></g><path d="M399.833 159.412H483.5v30.59h-83.667z"/><text fill="#000" font-family="MyriadPro-Regular, Myriad Pro, Arial" font-size="28"><tspan x="407.871" y="179.292">+30%</tspan></text><path d="M561.024 88.372H666.69v30.59H561.025z"/><text fill="#000" font-family="MyriadPro-Regular, Myriad Pro, Arial" font-size="28"><tspan x="569.982" y="108.252">+43,7%</tspan></text><path d="M359.5 288h184v18h-184z"/><text fill="#000" font-family="MyriadPro-Regular, Myriad Pro, Arial" font-size="12"><tspan x="359.5" y="296.519">Окончание программы</tspan></text><path d="M403 216.667h104.167v47.335H403z"/><g fill="#000" font-size="12" font-family="MyriadPro-Regular, Myriad Pro, Arial"><text transform="translate(403 214.186)"><tspan x="0" y="11">Доход 30 000 руб.</tspan></text><text transform="translate(403 214.186)"><tspan x="0" y="25.4">на обычном росте</tspan></text><text transform="translate(403 214.186)"><tspan x="0" y="39.801">рынка 30%</tspan></text></g><path d="M565.667 169.33h137.667v75.336H565.667z"/><g fill="#000" font-size="12" font-family="MyriadPro-Regular, Myriad Pro, Arial"><text transform="translate(565.667 166.85)"><tspan x="0" y="11">Доход клиента</tspan></text><text transform="translate(565.667 166.85)"><tspan x="0" y="25.4">программы</tspan></text><text transform="translate(565.667 166.85)"><tspan x="0" y="39.801">«КАПИТАЛ В ПЛЮС»</tspan></text><text transform="translate(565.667 166.85)"><tspan x="0" y="54.2">выше, то есть 43 700 руб.</tspan></text></g></g></svg>